<svg width="405" height="406" viewBox="0 0 405 406" fill="none" xmlns="http://www.w3.org/2000/svg">
<rect x="19.7559" y="224.68" width="19.7561" height="132.049" fill="url(#paint0_linear_225_26)"/>
<rect width="19.7515" height="368.286" transform="matrix(0.950845 0.309667 -0.440097 0.89795 192.26 21.5938)" fill="url(#paint1_linear_225_26)"/>
<rect width="19.7502" height="368.318" transform="matrix(-0.936111 0.351706 0.479778 0.87739 208.145 39.4175)" fill="url(#paint2_linear_225_26)"/>
<rect opacity="0.34" width="19.7233" height="374.864" transform="matrix(0.554463 -0.832208 0.869854 0.493308 31.6094 45.9766)" fill="url(#paint3_linear_225_26)"/>
<path opacity="0.35" d="M377.971 212.854L386.023 230.852L45.4393 380.379L37.5369 363.626L377.971 212.854Z" fill="url(#paint4_linear_225_26)"/>
<ellipse cx="197.562" cy="29.5631" rx="29.6341" ry="29.5631" fill="#EE4E94"/>
<ellipse cx="29.6341" cy="224.68" rx="29.6341" ry="29.5631" fill="#D642BC"/>
<ellipse cx="29.6341" cy="376.437" rx="29.6341" ry="29.5631" fill="#924CE8"/>
<ellipse cx="375.367" cy="224.68" rx="29.6341" ry="29.5631" fill="#D642BC"/>
<ellipse cx="29.6341" cy="29.5631" rx="29.6341" ry="29.5631" fill="#EE4E94"/>
<ellipse cx="375.367" cy="376.437" rx="29.6341" ry="29.5631" fill="#924CE8"/>
<defs>
<linearGradient id="paint0_linear_225_26" x1="29.0557" y1="232.372" x2="36.5105" y2="354.683" gradientUnits="userSpaceOnUse">
<stop stop-color="#EE4E94"/>
<stop offset="1" stop-color="#924CE8"/>
</linearGradient>
<linearGradient id="paint1_linear_225_26" x1="9.29768" y1="21.4536" x2="65.8789" y2="354.229" gradientUnits="userSpaceOnUse">
<stop stop-color="#EE4E94"/>
<stop offset="1" stop-color="#924CE8"/>
</linearGradient>
<linearGradient id="paint2_linear_225_26" x1="9.29705" y1="21.4554" x2="65.8915" y2="354.257" gradientUnits="userSpaceOnUse">
<stop stop-color="#EE4E94"/>
<stop offset="1" stop-color="#924CE8"/>
</linearGradient>
<linearGradient id="paint3_linear_225_26" x1="9.28436" y1="21.8367" x2="67.9246" y2="360.185" gradientUnits="userSpaceOnUse">
<stop stop-color="#EE4E94"/>
<stop offset="1" stop-color="#924CE8"/>
</linearGradient>
<linearGradient id="paint4_linear_225_26" x1="361.585" y1="228.918" x2="82.7775" y2="414.86" gradientUnits="userSpaceOnUse">
<stop stop-color="#EE4E94"/>
<stop offset="1" stop-color="#924CE8"/>
</linearGradient>
</defs>
</svg>
