<svg width="818" height="394" viewBox="0 0 818 394" fill="none" xmlns="http://www.w3.org/2000/svg">
<rect x="319" y="114" width="10" height="67" fill="url(#paint0_linear_228_77)"/>
<rect width="10" height="186.778" transform="matrix(0.950626 0.31034 -0.439246 0.898367 406.316 10.9565)" fill="url(#paint1_linear_228_77)"/>
<rect width="10" height="186.778" transform="matrix(-0.935832 0.352446 0.478892 0.877874 414.357 20)" fill="url(#paint2_linear_228_77)"/>
<rect opacity="0.34" width="10" height="189.857" transform="matrix(0.553542 -0.832821 0.869346 0.494204 325 23.3281)" fill="url(#paint3_linear_228_77)"/>
<path opacity="0.35" d="M500.318 108L504.394 117.132L332 193L328 184.5L500.318 108Z" fill="url(#paint4_linear_228_77)"/>
<circle cx="409" cy="15" r="15" fill="#EE4E94"/>
<circle cx="324" cy="114" r="15" fill="#D642BC"/>
<circle cx="324" cy="191" r="15" fill="#924CE8"/>
<circle cx="499" cy="114" r="15" fill="#D642BC"/>
<circle cx="324" cy="15" r="15" fill="#EE4E94"/>
<circle cx="499" cy="191" r="15" fill="#924CE8"/>
<path d="M211.773 319.218L212.125 326.671H211.234C211.062 325.359 210.828 324.421 210.531 323.859C210.047 322.953 209.398 322.289 208.586 321.867C207.789 321.429 206.734 321.21 205.422 321.21H200.945V345.492C200.945 347.445 201.156 348.664 201.578 349.148C202.172 349.804 203.086 350.132 204.32 350.132H205.422V351H191.945V350.132H193.07C194.414 350.132 195.367 349.726 195.93 348.914C196.273 348.414 196.445 347.273 196.445 345.492V321.21H192.625C191.141 321.21 190.086 321.32 189.461 321.539C188.648 321.835 187.953 322.406 187.375 323.25C186.797 324.093 186.453 325.234 186.344 326.671H185.453L185.828 319.218H211.773ZM230.575 320.953V333.515H237.559C239.372 333.515 240.583 333.242 241.192 332.695C242.005 331.976 242.458 330.71 242.552 328.898H243.419V339.96H242.552C242.333 338.414 242.114 337.421 241.895 336.984C241.614 336.437 241.153 336.007 240.513 335.695C239.872 335.382 238.888 335.226 237.559 335.226H230.575V345.703C230.575 347.109 230.638 347.968 230.763 348.281C230.888 348.578 231.106 348.82 231.419 349.007C231.731 349.179 232.325 349.265 233.2 349.265H238.591C240.388 349.265 241.692 349.14 242.505 348.89C243.317 348.64 244.098 348.148 244.848 347.414C245.817 346.445 246.809 344.984 247.825 343.031H248.763L246.02 351H221.528V350.132H222.653C223.403 350.132 224.114 349.953 224.786 349.593C225.286 349.343 225.622 348.968 225.794 348.468C225.981 347.968 226.075 346.945 226.075 345.398V324.75C226.075 322.734 225.872 321.492 225.466 321.023C224.903 320.398 223.966 320.085 222.653 320.085H221.528V319.218H246.02L246.372 326.179H245.458C245.13 324.507 244.763 323.359 244.356 322.734C243.966 322.109 243.38 321.632 242.598 321.304C241.973 321.07 240.872 320.953 239.294 320.953H230.575ZM285.986 318.492L286.713 329.296H285.986C285.017 326.062 283.634 323.734 281.838 322.312C280.041 320.89 277.884 320.179 275.369 320.179C273.259 320.179 271.353 320.718 269.65 321.796C267.947 322.859 266.603 324.562 265.619 326.906C264.65 329.25 264.166 332.164 264.166 335.648C264.166 338.523 264.627 341.015 265.548 343.125C266.47 345.234 267.853 346.851 269.697 347.976C271.556 349.101 273.673 349.664 276.048 349.664C278.111 349.664 279.931 349.226 281.509 348.351C283.088 347.46 284.822 345.703 286.713 343.078L287.439 343.546C285.845 346.375 283.986 348.445 281.861 349.757C279.736 351.07 277.213 351.726 274.291 351.726C269.025 351.726 264.947 349.773 262.056 345.867C259.9 342.96 258.822 339.539 258.822 335.601C258.822 332.429 259.533 329.515 260.955 326.859C262.377 324.203 264.33 322.148 266.814 320.695C269.314 319.226 272.041 318.492 274.994 318.492C277.291 318.492 279.556 319.054 281.791 320.179C282.447 320.523 282.916 320.695 283.197 320.695C283.619 320.695 283.986 320.546 284.298 320.25C284.705 319.828 284.994 319.242 285.166 318.492H285.986ZM306.17 333.96H320.936V324.867C320.936 323.242 320.834 322.171 320.631 321.656C320.475 321.265 320.147 320.929 319.647 320.648C318.975 320.273 318.264 320.085 317.514 320.085H316.389V319.218H329.983V320.085H328.858C328.108 320.085 327.397 320.265 326.725 320.625C326.225 320.875 325.881 321.257 325.694 321.773C325.522 322.273 325.436 323.304 325.436 324.867V345.375C325.436 346.984 325.537 348.046 325.741 348.562C325.897 348.953 326.217 349.289 326.702 349.57C327.389 349.945 328.108 350.132 328.858 350.132H329.983V351H316.389V350.132H317.514C318.811 350.132 319.756 349.75 320.35 348.984C320.741 348.484 320.936 347.281 320.936 345.375V335.695H306.17V345.375C306.17 346.984 306.272 348.046 306.475 348.562C306.631 348.953 306.959 349.289 307.459 349.57C308.131 349.945 308.842 350.132 309.592 350.132H310.741V351H297.123V350.132H298.248C299.561 350.132 300.514 349.75 301.108 348.984C301.483 348.484 301.67 347.281 301.67 345.375V324.867C301.67 323.242 301.569 322.171 301.366 321.656C301.209 321.265 300.889 320.929 300.405 320.648C299.717 320.273 298.998 320.085 298.248 320.085H297.123V319.218H310.741V320.085H309.592C308.842 320.085 308.131 320.265 307.459 320.625C306.975 320.875 306.639 321.257 306.452 321.773C306.264 322.273 306.17 323.304 306.17 324.867V333.96ZM337.558 319.218H346.183L365.613 343.054V324.726C365.613 322.773 365.394 321.554 364.956 321.07C364.378 320.414 363.464 320.085 362.214 320.085H361.113V319.218H372.175V320.085H371.05C369.706 320.085 368.753 320.492 368.191 321.304C367.847 321.804 367.675 322.945 367.675 324.726V351.515H366.831L345.878 325.921V345.492C345.878 347.445 346.089 348.664 346.511 349.148C347.105 349.804 348.019 350.132 349.253 350.132H350.378V351H339.316V350.132H340.417C341.777 350.132 342.738 349.726 343.3 348.914C343.644 348.414 343.816 347.273 343.816 345.492V323.39C342.894 322.312 342.191 321.601 341.706 321.257C341.238 320.914 340.542 320.593 339.62 320.296C339.167 320.156 338.48 320.085 337.558 320.085V319.218ZM397.633 318.492C401.758 318.492 405.328 320.062 408.344 323.203C411.375 326.328 412.891 330.234 412.891 334.921C412.891 339.75 411.367 343.757 408.32 346.945C405.273 350.132 401.586 351.726 397.258 351.726C392.883 351.726 389.203 350.171 386.219 347.062C383.25 343.953 381.766 339.929 381.766 334.992C381.766 329.945 383.484 325.828 386.922 322.64C389.906 319.875 393.477 318.492 397.633 318.492ZM397.188 320.203C394.344 320.203 392.062 321.257 390.344 323.367C388.203 325.992 387.133 329.835 387.133 334.898C387.133 340.085 388.242 344.078 390.461 346.875C392.164 349 394.414 350.062 397.211 350.062C400.195 350.062 402.656 348.898 404.594 346.57C406.547 344.242 407.523 340.57 407.523 335.554C407.523 330.117 406.453 326.062 404.312 323.39C402.594 321.265 400.219 320.203 397.188 320.203ZM449.481 342.21L450.255 342.375L447.536 351H422.927V350.132H424.122C425.466 350.132 426.427 349.695 427.005 348.82C427.333 348.32 427.497 347.164 427.497 345.351V324.843C427.497 322.859 427.278 321.617 426.841 321.117C426.231 320.429 425.325 320.085 424.122 320.085H422.927V319.218H437.317V320.085C435.63 320.07 434.442 320.226 433.755 320.554C433.083 320.882 432.622 321.296 432.372 321.796C432.122 322.296 431.997 323.492 431.997 325.382V345.351C431.997 346.648 432.122 347.539 432.372 348.023C432.559 348.351 432.848 348.593 433.239 348.75C433.63 348.906 434.848 348.984 436.895 348.984H439.216C441.653 348.984 443.364 348.804 444.348 348.445C445.333 348.085 446.231 347.453 447.044 346.546C447.856 345.625 448.669 344.179 449.481 342.21ZM476.064 318.492C480.189 318.492 483.759 320.062 486.775 323.203C489.806 326.328 491.322 330.234 491.322 334.921C491.322 339.75 489.798 343.757 486.752 346.945C483.705 350.132 480.017 351.726 475.689 351.726C471.314 351.726 467.634 350.171 464.65 347.062C461.681 343.953 460.197 339.929 460.197 334.992C460.197 329.945 461.916 325.828 465.353 322.64C468.337 319.875 471.908 318.492 476.064 318.492ZM475.619 320.203C472.775 320.203 470.494 321.257 468.775 323.367C466.634 325.992 465.564 329.835 465.564 334.898C465.564 340.085 466.673 344.078 468.892 346.875C470.595 349 472.845 350.062 475.642 350.062C478.627 350.062 481.087 348.898 483.025 346.57C484.978 344.242 485.955 340.57 485.955 335.554C485.955 330.117 484.884 326.062 482.744 323.39C481.025 321.265 478.65 320.203 475.619 320.203ZM529.858 318.492L530.678 328.523H529.858C529.03 326.023 527.959 324.14 526.647 322.875C524.756 321.046 522.327 320.132 519.358 320.132C515.311 320.132 512.233 321.734 510.123 324.937C508.358 327.64 507.475 330.859 507.475 334.593C507.475 337.625 508.061 340.39 509.233 342.89C510.405 345.39 511.936 347.226 513.827 348.398C515.733 349.554 517.686 350.132 519.686 350.132C520.858 350.132 521.991 349.984 523.084 349.687C524.178 349.39 525.233 348.953 526.248 348.375V339.187C526.248 337.593 526.123 336.554 525.873 336.07C525.639 335.57 525.264 335.195 524.748 334.945C524.248 334.679 523.358 334.546 522.077 334.546V333.656H534.381V334.546H533.795C532.577 334.546 531.741 334.953 531.288 335.765C530.975 336.343 530.819 337.484 530.819 339.187V348.914C529.022 349.882 527.248 350.593 525.498 351.046C523.748 351.5 521.803 351.726 519.663 351.726C513.522 351.726 508.858 349.757 505.67 345.82C503.28 342.867 502.084 339.46 502.084 335.601C502.084 332.804 502.756 330.125 504.1 327.562C505.694 324.515 507.881 322.171 510.663 320.531C512.991 319.171 515.741 318.492 518.913 318.492C520.069 318.492 521.116 318.585 522.053 318.773C523.006 318.96 524.35 319.375 526.084 320.015C526.959 320.343 527.545 320.507 527.842 320.507C528.139 320.507 528.389 320.375 528.592 320.109C528.811 319.828 528.944 319.289 528.991 318.492H529.858ZM557.097 350.132V351H543.48V350.132H544.605C545.917 350.132 546.87 349.75 547.464 348.984C547.839 348.484 548.027 347.281 548.027 345.375V324.843C548.027 323.234 547.925 322.171 547.722 321.656C547.566 321.265 547.245 320.929 546.761 320.648C546.073 320.273 545.355 320.085 544.605 320.085H543.48V319.218H557.097V320.085H555.948C554.652 320.085 553.706 320.468 553.112 321.234C552.722 321.734 552.527 322.937 552.527 324.843V345.375C552.527 346.984 552.628 348.046 552.831 348.562C552.987 348.953 553.316 349.289 553.816 349.57C554.487 349.945 555.198 350.132 555.948 350.132H557.097ZM575.5 320.953V333.515H582.484C584.297 333.515 585.508 333.242 586.117 332.695C586.93 331.976 587.383 330.71 587.477 328.898H588.344V339.96H587.477C587.258 338.414 587.039 337.421 586.82 336.984C586.539 336.437 586.078 336.007 585.438 335.695C584.797 335.382 583.812 335.226 582.484 335.226H575.5V345.703C575.5 347.109 575.562 347.968 575.688 348.281C575.812 348.578 576.031 348.82 576.344 349.007C576.656 349.179 577.25 349.265 578.125 349.265H583.516C585.312 349.265 586.617 349.14 587.43 348.89C588.242 348.64 589.023 348.148 589.773 347.414C590.742 346.445 591.734 344.984 592.75 343.031H593.688L590.945 351H566.453V350.132H567.578C568.328 350.132 569.039 349.953 569.711 349.593C570.211 349.343 570.547 348.968 570.719 348.468C570.906 347.968 571 346.945 571 345.398V324.75C571 322.734 570.797 321.492 570.391 321.023C569.828 320.398 568.891 320.085 567.578 320.085H566.453V319.218H590.945L591.297 326.179H590.383C590.055 324.507 589.688 323.359 589.281 322.734C588.891 322.109 588.305 321.632 587.523 321.304C586.898 321.07 585.797 320.953 584.219 320.953H575.5ZM624.02 318.492V329.484H623.153C622.872 327.375 622.364 325.695 621.63 324.445C620.911 323.195 619.88 322.203 618.536 321.468C617.192 320.734 615.802 320.367 614.364 320.367C612.739 320.367 611.395 320.867 610.333 321.867C609.27 322.851 608.739 323.976 608.739 325.242C608.739 326.21 609.075 327.093 609.747 327.89C610.716 329.062 613.02 330.625 616.661 332.578C619.63 334.171 621.653 335.398 622.731 336.257C623.825 337.101 624.661 338.101 625.239 339.257C625.833 340.414 626.13 341.625 626.13 342.89C626.13 345.296 625.192 347.375 623.317 349.125C621.458 350.859 619.059 351.726 616.122 351.726C615.2 351.726 614.333 351.656 613.52 351.515C613.036 351.437 612.028 351.156 610.497 350.671C608.981 350.171 608.02 349.921 607.614 349.921C607.223 349.921 606.911 350.039 606.677 350.273C606.458 350.507 606.294 350.992 606.184 351.726H605.317V340.828H606.184C606.591 343.109 607.138 344.82 607.825 345.96C608.513 347.085 609.559 348.023 610.966 348.773C612.388 349.523 613.942 349.898 615.63 349.898C617.583 349.898 619.122 349.382 620.247 348.351C621.388 347.32 621.958 346.101 621.958 344.695C621.958 343.914 621.739 343.125 621.302 342.328C620.88 341.531 620.216 340.789 619.309 340.101C618.7 339.632 617.036 338.64 614.317 337.125C611.598 335.593 609.661 334.375 608.505 333.468C607.364 332.562 606.497 331.562 605.903 330.468C605.309 329.375 605.013 328.171 605.013 326.859C605.013 324.578 605.888 322.617 607.638 320.976C609.388 319.32 611.614 318.492 614.317 318.492C616.005 318.492 617.794 318.906 619.684 319.734C620.559 320.125 621.177 320.32 621.536 320.32C621.942 320.32 622.27 320.203 622.52 319.968C622.786 319.718 622.997 319.226 623.153 318.492H624.02Z" fill="#4F4F4F"/>
<path d="M617.96 231H627.56V298.2H617.96V231ZM579.368 298.2H569.768V231H579.368V298.2ZM618.824 268.248H578.408V259.896H618.824V268.248Z" fill="url(#paint5_linear_228_77)"/>
<path d="M532.751 298.736C527.631 298.736 522.735 297.968 518.063 296.432C513.391 294.832 509.711 292.784 507.023 290.288L510.575 282.8C513.135 285.04 516.399 286.896 520.367 288.368C524.335 289.84 528.463 290.576 532.751 290.576C536.655 290.576 539.823 290.128 542.255 289.232C544.687 288.336 546.479 287.12 547.631 285.584C548.783 283.984 549.359 282.192 549.359 280.208C549.359 277.904 548.591 276.048 547.055 274.64C545.583 273.232 543.631 272.112 541.199 271.28C538.831 270.384 536.207 269.616 533.327 268.976C530.447 268.336 527.535 267.6 524.591 266.768C521.711 265.872 519.055 264.752 516.623 263.408C514.255 262.064 512.335 260.272 510.863 258.032C509.391 255.728 508.655 252.784 508.655 249.2C508.655 245.744 509.551 242.576 511.343 239.696C513.199 236.752 516.015 234.416 519.791 232.688C523.631 230.896 528.495 230 534.383 230C538.287 230 542.159 230.512 545.999 231.536C549.839 232.56 553.167 234.032 555.983 235.952L552.815 243.632C549.935 241.712 546.895 240.336 543.695 239.504C540.495 238.608 537.391 238.16 534.383 238.16C530.607 238.16 527.503 238.64 525.071 239.6C522.639 240.56 520.847 241.84 519.695 243.44C518.607 245.04 518.063 246.832 518.063 248.816C518.063 251.184 518.799 253.072 520.271 254.48C521.807 255.888 523.759 257.008 526.127 257.84C528.559 258.672 531.215 259.44 534.095 260.144C536.975 260.784 539.855 261.52 542.735 262.352C545.679 263.184 548.335 264.272 550.703 265.616C553.135 266.96 555.087 268.752 556.559 270.992C558.031 273.232 558.767 276.112 558.767 279.632C558.767 283.024 557.839 286.192 555.983 289.136C554.127 292.016 551.247 294.352 547.343 296.144C543.503 297.872 538.639 298.736 532.751 298.736Z" fill="url(#paint6_linear_228_77)"/>
<path d="M391.408 299.736C386.288 299.736 381.52 298.872 377.104 297.144C372.752 295.416 368.976 293.016 365.776 289.944C362.576 286.808 360.08 283.16 358.288 279C356.496 274.84 355.6 270.296 355.6 265.368C355.6 260.44 356.496 255.896 358.288 251.736C360.08 247.576 362.576 243.96 365.776 240.888C368.976 237.752 372.752 235.32 377.104 233.592C381.456 231.864 386.224 231 391.408 231C396.528 231 401.232 231.864 405.52 233.592C409.872 235.256 413.648 237.656 416.848 240.792C420.112 243.864 422.608 247.48 424.336 251.64C426.128 255.8 427.024 260.376 427.024 265.368C427.024 270.36 426.128 274.936 424.336 279.096C422.608 283.256 420.112 286.904 416.848 290.04C413.648 293.112 409.872 295.512 405.52 297.24C401.232 298.904 396.528 299.736 391.408 299.736ZM391.408 291.192C395.12 291.192 398.544 290.552 401.68 289.272C404.88 287.992 407.632 286.2 409.936 283.896C412.304 281.528 414.128 278.776 415.408 275.64C416.752 272.504 417.424 269.08 417.424 265.368C417.424 261.656 416.752 258.232 415.408 255.096C414.128 251.96 412.304 249.24 409.936 246.936C407.632 244.568 404.88 242.744 401.68 241.464C398.544 240.184 395.12 239.544 391.408 239.544C387.632 239.544 384.144 240.184 380.944 241.464C377.808 242.744 375.056 244.568 372.688 246.936C370.32 249.24 368.464 251.96 367.12 255.096C365.84 258.232 365.2 261.656 365.2 265.368C365.2 269.08 365.84 272.504 367.12 275.64C368.464 278.776 370.32 281.528 372.688 283.896C375.056 286.2 377.808 287.992 380.944 289.272C384.144 290.552 387.632 291.192 391.408 291.192Z" fill="url(#paint7_linear_228_77)"/>
<path d="M217.6 299V250.5V231L268.1 280L265.965 286.036V231H275.6L275.1 300L248.6 274L217.6 244V231V250.5L227.234 260V299H217.6Z" fill="url(#paint8_linear_228_77)"/>
<path d="M286.6 299V250.5V231L337.1 280L334.965 286.036V231H344.6L344.1 300L317.6 274L286.6 244V231V250.5L296.234 260V299H286.6Z" fill="url(#paint9_linear_228_77)"/>
<path d="M438.023 297V248.5V229L488.523 278L486.389 284.036V229H496.023L495.523 298L469.023 272L438.023 242V229V248.5L447.658 258V297H438.023Z" fill="url(#paint10_linear_228_77)"/>
<path d="M197 299V231.8H206.6V299H197Z" fill="url(#paint11_linear_228_77)"/>
<path d="M2.1 389V375H4.1V389H2.1ZM16.6714 378.3C17.5381 378.3 18.2981 378.467 18.9514 378.8C19.6181 379.133 20.1381 379.64 20.5114 380.32C20.8847 381 21.0714 381.86 21.0714 382.9V389H19.1514V383.12C19.1514 382.093 18.8981 381.32 18.3914 380.8C17.8981 380.28 17.1981 380.02 16.2914 380.02C15.6114 380.02 15.0181 380.153 14.5114 380.42C14.0047 380.687 13.6114 381.08 13.3314 381.6C13.0647 382.12 12.9314 382.767 12.9314 383.54V389H11.0114V378.4H12.8514V381.26L12.5514 380.5C12.8981 379.807 13.4314 379.267 14.1514 378.88C14.8714 378.493 15.7114 378.3 16.6714 378.3ZM33.2847 378.3C34.1514 378.3 34.9114 378.467 35.5647 378.8C36.2314 379.133 36.7514 379.64 37.1247 380.32C37.498 381 37.6847 381.86 37.6847 382.9V389H35.7647V383.12C35.7647 382.093 35.5114 381.32 35.0047 380.8C34.5114 380.28 33.8114 380.02 32.9047 380.02C32.2247 380.02 31.6314 380.153 31.1247 380.42C30.618 380.687 30.2247 381.08 29.9447 381.6C29.678 382.12 29.5447 382.767 29.5447 383.54V389H27.6247V378.4H29.4647V381.26L29.1647 380.5C29.5114 379.807 30.0447 379.267 30.7647 378.88C31.4847 378.493 32.3247 378.3 33.2847 378.3ZM48.778 389.12C47.7113 389.12 46.7646 388.887 45.938 388.42C45.1113 387.953 44.458 387.313 43.978 386.5C43.498 385.673 43.258 384.74 43.258 383.7C43.258 382.647 43.498 381.713 43.978 380.9C44.458 380.087 45.1113 379.453 45.938 379C46.7646 378.533 47.7113 378.3 48.778 378.3C49.8313 378.3 50.7713 378.533 51.598 379C52.438 379.453 53.0913 380.087 53.558 380.9C54.038 381.7 54.278 382.633 54.278 383.7C54.278 384.753 54.038 385.687 53.558 386.5C53.0913 387.313 52.438 387.953 51.598 388.42C50.7713 388.887 49.8313 389.12 48.778 389.12ZM48.778 387.44C49.458 387.44 50.0646 387.287 50.598 386.98C51.1446 386.673 51.5713 386.24 51.878 385.68C52.1846 385.107 52.338 384.447 52.338 383.7C52.338 382.94 52.1846 382.287 51.878 381.74C51.5713 381.18 51.1446 380.747 50.598 380.44C50.0646 380.133 49.458 379.98 48.778 379.98C48.098 379.98 47.4913 380.133 46.958 380.44C46.4246 380.747 45.998 381.18 45.678 381.74C45.358 382.287 45.198 382.94 45.198 383.7C45.198 384.447 45.358 385.107 45.678 385.68C45.998 386.24 46.4246 386.673 46.958 386.98C47.4913 387.287 48.098 387.44 48.778 387.44ZM62.4203 389L57.7803 378.4H59.7803L63.9003 388H62.9403L67.1403 378.4H69.0203L64.3803 389H62.4203ZM80.0602 389V386.76L79.9602 386.34V382.52C79.9602 381.707 79.7202 381.08 79.2402 380.64C78.7735 380.187 78.0668 379.96 77.1202 379.96C76.4935 379.96 75.8802 380.067 75.2802 380.28C74.6802 380.48 74.1735 380.753 73.7602 381.1L72.9602 379.66C73.5068 379.22 74.1602 378.887 74.9202 378.66C75.6935 378.42 76.5002 378.3 77.3402 378.3C78.7935 378.3 79.9135 378.653 80.7002 379.36C81.4868 380.067 81.8802 381.147 81.8802 382.6V389H80.0602ZM76.5802 389.12C75.7935 389.12 75.1002 388.987 74.5002 388.72C73.9135 388.453 73.4602 388.087 73.1402 387.62C72.8202 387.14 72.6602 386.6 72.6602 386C72.6602 385.427 72.7935 384.907 73.0602 384.44C73.3402 383.973 73.7868 383.6 74.4002 383.32C75.0268 383.04 75.8668 382.9 76.9202 382.9H80.2802V384.28H77.0002C76.0402 384.28 75.3935 384.44 75.0602 384.76C74.7268 385.08 74.5602 385.467 74.5602 385.92C74.5602 386.44 74.7668 386.86 75.1802 387.18C75.5935 387.487 76.1668 387.64 76.9002 387.64C77.6202 387.64 78.2468 387.48 78.7802 387.16C79.3268 386.84 79.7202 386.373 79.9602 385.76L80.3402 387.08C80.0868 387.707 79.6402 388.207 79.0002 388.58C78.3602 388.94 77.5535 389.12 76.5802 389.12ZM92.0733 389.12C91.0066 389.12 90.1799 388.833 89.5933 388.26C89.0066 387.687 88.7133 386.867 88.7133 385.8V376.08H90.6333V385.72C90.6333 386.293 90.7733 386.733 91.0533 387.04C91.3466 387.347 91.7599 387.5 92.2933 387.5C92.8933 387.5 93.3933 387.333 93.7933 387L94.3933 388.38C94.0999 388.633 93.7466 388.82 93.3333 388.94C92.9333 389.06 92.5133 389.12 92.0733 389.12ZM86.9133 379.98V378.4H93.6733V379.98H86.9133ZM99.7145 389V378.4H101.635V389H99.7145ZM100.675 376.36C100.301 376.36 99.9879 376.24 99.7345 376C99.4945 375.76 99.3745 375.467 99.3745 375.12C99.3745 374.76 99.4945 374.46 99.7345 374.22C99.9879 373.98 100.301 373.86 100.675 373.86C101.048 373.86 101.355 373.98 101.595 374.22C101.848 374.447 101.975 374.733 101.975 375.08C101.975 375.44 101.855 375.747 101.615 376C101.375 376.24 101.061 376.36 100.675 376.36ZM112.84 389.12C111.774 389.12 110.827 388.887 110 388.42C109.174 387.953 108.52 387.313 108.04 386.5C107.56 385.673 107.32 384.74 107.32 383.7C107.32 382.647 107.56 381.713 108.04 380.9C108.52 380.087 109.174 379.453 110 379C110.827 378.533 111.774 378.3 112.84 378.3C113.894 378.3 114.834 378.533 115.66 379C116.5 379.453 117.154 380.087 117.62 380.9C118.1 381.7 118.34 382.633 118.34 383.7C118.34 384.753 118.1 385.687 117.62 386.5C117.154 387.313 116.5 387.953 115.66 388.42C114.834 388.887 113.894 389.12 112.84 389.12ZM112.84 387.44C113.52 387.44 114.127 387.287 114.66 386.98C115.207 386.673 115.634 386.24 115.94 385.68C116.247 385.107 116.4 384.447 116.4 383.7C116.4 382.94 116.247 382.287 115.94 381.74C115.634 381.18 115.207 380.747 114.66 380.44C114.127 380.133 113.52 379.98 112.84 379.98C112.16 379.98 111.554 380.133 111.02 380.44C110.487 380.747 110.06 381.18 109.74 381.74C109.42 382.287 109.26 382.94 109.26 383.7C109.26 384.447 109.42 385.107 109.74 385.68C110.06 386.24 110.487 386.673 111.02 386.98C111.554 387.287 112.16 387.44 112.84 387.44ZM129.656 378.3C130.522 378.3 131.282 378.467 131.936 378.8C132.602 379.133 133.122 379.64 133.496 380.32C133.869 381 134.056 381.86 134.056 382.9V389H132.136V383.12C132.136 382.093 131.882 381.32 131.376 380.8C130.882 380.28 130.182 380.02 129.276 380.02C128.596 380.02 128.002 380.153 127.496 380.42C126.989 380.687 126.596 381.08 126.316 381.6C126.049 382.12 125.916 382.767 125.916 383.54V389H123.996V378.4H125.836V381.26L125.536 380.5C125.882 379.807 126.416 379.267 127.136 378.88C127.856 378.493 128.696 378.3 129.656 378.3ZM149.26 389V375H155.54C157.153 375 158.393 375.327 159.26 375.98C160.127 376.62 160.56 377.5 160.56 378.62C160.56 379.38 160.387 380.02 160.04 380.54C159.707 381.06 159.253 381.46 158.68 381.74C158.107 382.02 157.487 382.16 156.82 382.16L157.18 381.56C157.98 381.56 158.687 381.7 159.3 381.98C159.913 382.26 160.4 382.673 160.76 383.22C161.12 383.753 161.3 384.42 161.3 385.22C161.3 386.42 160.847 387.353 159.94 388.02C159.047 388.673 157.713 389 155.94 389H149.26ZM151.26 387.38H155.86C156.967 387.38 157.813 387.193 158.4 386.82C158.987 386.447 159.28 385.86 159.28 385.06C159.28 384.247 158.987 383.653 158.4 383.28C157.813 382.907 156.967 382.72 155.86 382.72H151.08V381.1H155.36C156.373 381.1 157.16 380.913 157.72 380.54C158.28 380.167 158.56 379.607 158.56 378.86C158.56 378.113 158.28 377.553 157.72 377.18C157.16 376.807 156.373 376.62 155.36 376.62H151.26V387.38ZM171.837 389.12C170.704 389.12 169.704 388.887 168.837 388.42C167.984 387.953 167.317 387.313 166.837 386.5C166.37 385.687 166.137 384.753 166.137 383.7C166.137 382.647 166.364 381.713 166.817 380.9C167.284 380.087 167.917 379.453 168.717 379C169.53 378.533 170.444 378.3 171.457 378.3C172.484 378.3 173.39 378.527 174.177 378.98C174.964 379.433 175.577 380.073 176.017 380.9C176.47 381.713 176.697 382.667 176.697 383.76C176.697 383.84 176.69 383.933 176.677 384.04C176.677 384.147 176.67 384.247 176.657 384.34H167.637V382.96H175.657L174.877 383.44C174.89 382.76 174.75 382.153 174.457 381.62C174.164 381.087 173.757 380.673 173.237 380.38C172.73 380.073 172.137 379.92 171.457 379.92C170.79 379.92 170.197 380.073 169.677 380.38C169.157 380.673 168.75 381.093 168.457 381.64C168.164 382.173 168.017 382.787 168.017 383.48V383.8C168.017 384.507 168.177 385.14 168.497 385.7C168.83 386.247 169.29 386.673 169.877 386.98C170.464 387.287 171.137 387.44 171.897 387.44C172.524 387.44 173.09 387.333 173.597 387.12C174.117 386.907 174.57 386.587 174.957 386.16L176.017 387.4C175.537 387.96 174.937 388.387 174.217 388.68C173.51 388.973 172.717 389.12 171.837 389.12ZM187.003 393C186.03 393 185.083 392.86 184.163 392.58C183.256 392.313 182.516 391.927 181.943 391.42L182.863 389.94C183.356 390.367 183.963 390.7 184.683 390.94C185.403 391.193 186.156 391.32 186.943 391.32C188.196 391.32 189.116 391.027 189.703 390.44C190.29 389.853 190.583 388.96 190.583 387.76V385.52L190.783 383.42L190.683 381.3V378.4H192.503V387.56C192.503 389.427 192.036 390.8 191.103 391.68C190.17 392.56 188.803 393 187.003 393ZM186.763 388.56C185.736 388.56 184.816 388.347 184.003 387.92C183.203 387.48 182.563 386.873 182.083 386.1C181.616 385.327 181.383 384.433 181.383 383.42C181.383 382.393 181.616 381.5 182.083 380.74C182.563 379.967 183.203 379.367 184.003 378.94C184.816 378.513 185.736 378.3 186.763 378.3C187.67 378.3 188.496 378.487 189.243 378.86C189.99 379.22 190.583 379.78 191.023 380.54C191.476 381.3 191.703 382.26 191.703 383.42C191.703 384.567 191.476 385.52 191.023 386.28C190.583 387.04 189.99 387.613 189.243 388C188.496 388.373 187.67 388.56 186.763 388.56ZM186.983 386.88C187.69 386.88 188.316 386.733 188.863 386.44C189.41 386.147 189.836 385.74 190.143 385.22C190.463 384.7 190.623 384.1 190.623 383.42C190.623 382.74 190.463 382.14 190.143 381.62C189.836 381.1 189.41 380.7 188.863 380.42C188.316 380.127 187.69 379.98 186.983 379.98C186.276 379.98 185.643 380.127 185.083 380.42C184.536 380.7 184.103 381.1 183.783 381.62C183.476 382.14 183.323 382.74 183.323 383.42C183.323 384.1 183.476 384.7 183.783 385.22C184.103 385.74 184.536 386.147 185.083 386.44C185.643 386.733 186.276 386.88 186.983 386.88ZM199.172 389V378.4H201.092V389H199.172ZM200.132 376.36C199.758 376.36 199.445 376.24 199.192 376C198.952 375.76 198.832 375.467 198.832 375.12C198.832 374.76 198.952 374.46 199.192 374.22C199.445 373.98 199.758 373.86 200.132 373.86C200.505 373.86 200.812 373.98 201.052 374.22C201.305 374.447 201.432 374.733 201.432 375.08C201.432 375.44 201.312 375.747 201.072 376C200.832 376.24 200.518 376.36 200.132 376.36ZM213.418 378.3C214.284 378.3 215.044 378.467 215.698 378.8C216.364 379.133 216.884 379.64 217.258 380.32C217.631 381 217.818 381.86 217.818 382.9V389H215.898V383.12C215.898 382.093 215.644 381.32 215.138 380.8C214.644 380.28 213.944 380.02 213.038 380.02C212.358 380.02 211.764 380.153 211.258 380.42C210.751 380.687 210.358 381.08 210.078 381.6C209.811 382.12 209.678 382.767 209.678 383.54V389H207.758V378.4H209.598V381.26L209.298 380.5C209.644 379.807 210.178 379.267 210.898 378.88C211.618 378.493 212.458 378.3 213.418 378.3ZM227.411 389.12C226.531 389.12 225.691 389 224.891 388.76C224.104 388.52 223.484 388.227 223.031 387.88L223.831 386.36C224.284 386.667 224.844 386.927 225.511 387.14C226.177 387.353 226.857 387.46 227.551 387.46C228.444 387.46 229.084 387.333 229.471 387.08C229.871 386.827 230.071 386.473 230.071 386.02C230.071 385.687 229.951 385.427 229.711 385.24C229.471 385.053 229.151 384.913 228.751 384.82C228.364 384.727 227.931 384.647 227.451 384.58C226.971 384.5 226.491 384.407 226.011 384.3C225.531 384.18 225.091 384.02 224.691 383.82C224.291 383.607 223.971 383.32 223.731 382.96C223.491 382.587 223.371 382.093 223.371 381.48C223.371 380.84 223.551 380.28 223.911 379.8C224.271 379.32 224.777 378.953 225.431 378.7C226.097 378.433 226.884 378.3 227.791 378.3C228.484 378.3 229.184 378.387 229.891 378.56C230.611 378.72 231.197 378.953 231.651 379.26L230.831 380.78C230.351 380.46 229.851 380.24 229.331 380.12C228.811 380 228.291 379.94 227.771 379.94C226.931 379.94 226.304 380.08 225.891 380.36C225.477 380.627 225.271 380.973 225.271 381.4C225.271 381.76 225.391 382.04 225.631 382.24C225.884 382.427 226.204 382.573 226.591 382.68C226.991 382.787 227.431 382.88 227.911 382.96C228.391 383.027 228.871 383.12 229.351 383.24C229.831 383.347 230.264 383.5 230.651 383.7C231.051 383.9 231.371 384.18 231.611 384.54C231.864 384.9 231.991 385.38 231.991 385.98C231.991 386.62 231.804 387.173 231.431 387.64C231.057 388.107 230.531 388.473 229.851 388.74C229.171 388.993 228.357 389.12 227.411 389.12ZM248.001 389L244.061 378.4H245.881L249.381 388H248.521L252.161 378.4H253.781L257.341 388H256.501L260.081 378.4H261.801L257.841 389H256.001L252.661 380.24H253.221L249.841 389H248.001ZM266.75 389V378.4H268.67V389H266.75ZM267.71 376.36C267.336 376.36 267.023 376.24 266.77 376C266.53 375.76 266.41 375.467 266.41 375.12C266.41 374.76 266.53 374.46 266.77 374.22C267.023 373.98 267.336 373.86 267.71 373.86C268.083 373.86 268.39 373.98 268.63 374.22C268.883 374.447 269.01 374.733 269.01 375.08C269.01 375.44 268.89 375.747 268.65 376C268.41 376.24 268.096 376.36 267.71 376.36ZM278.976 389.12C277.909 389.12 277.082 388.833 276.496 388.26C275.909 387.687 275.616 386.867 275.616 385.8V376.08H277.536V385.72C277.536 386.293 277.676 386.733 277.956 387.04C278.249 387.347 278.662 387.5 279.196 387.5C279.796 387.5 280.296 387.333 280.696 387L281.296 388.38C281.002 388.633 280.649 388.82 280.236 388.94C279.836 389.06 279.416 389.12 278.976 389.12ZM273.816 379.98V378.4H280.576V379.98H273.816ZM292.277 378.3C293.144 378.3 293.904 378.467 294.557 378.8C295.224 379.133 295.744 379.64 296.117 380.32C296.49 381 296.677 381.86 296.677 382.9V389H294.757V383.12C294.757 382.093 294.504 381.32 293.997 380.8C293.504 380.28 292.804 380.02 291.897 380.02C291.217 380.02 290.624 380.153 290.117 380.42C289.61 380.687 289.217 381.08 288.937 381.6C288.67 382.12 288.537 382.767 288.537 383.54V389H286.617V374.16H288.537V381.26L288.157 380.5C288.504 379.807 289.037 379.267 289.757 378.88C290.477 378.493 291.317 378.3 292.277 378.3ZM313.701 381.04H320.901V382.74H313.701V381.04ZM313.881 387.26H322.041V389H311.881V375H321.761V376.74H313.881V387.26ZM330.604 389L325.964 378.4H327.964L332.084 388H331.124L335.324 378.4H337.204L332.564 389H330.604ZM346.423 389.12C345.289 389.12 344.289 388.887 343.423 388.42C342.569 387.953 341.903 387.313 341.423 386.5C340.956 385.687 340.723 384.753 340.723 383.7C340.723 382.647 340.949 381.713 341.403 380.9C341.869 380.087 342.503 379.453 343.303 379C344.116 378.533 345.029 378.3 346.043 378.3C347.069 378.3 347.976 378.527 348.763 378.98C349.549 379.433 350.163 380.073 350.603 380.9C351.056 381.713 351.283 382.667 351.283 383.76C351.283 383.84 351.276 383.933 351.263 384.04C351.263 384.147 351.256 384.247 351.243 384.34H342.223V382.96H350.243L349.463 383.44C349.476 382.76 349.336 382.153 349.043 381.62C348.749 381.087 348.343 380.673 347.823 380.38C347.316 380.073 346.723 379.92 346.043 379.92C345.376 379.92 344.783 380.073 344.263 380.38C343.743 380.673 343.336 381.093 343.043 381.64C342.749 382.173 342.603 382.787 342.603 383.48V383.8C342.603 384.507 342.763 385.14 343.083 385.7C343.416 386.247 343.876 386.673 344.463 386.98C345.049 387.287 345.723 387.44 346.483 387.44C347.109 387.44 347.676 387.333 348.183 387.12C348.703 386.907 349.156 386.587 349.543 386.16L350.603 387.4C350.123 387.96 349.523 388.387 348.803 388.68C348.096 388.973 347.303 389.12 346.423 389.12ZM356.949 389V378.4H358.789V381.28L358.609 380.56C358.902 379.827 359.396 379.267 360.089 378.88C360.782 378.493 361.636 378.3 362.649 378.3V380.16C362.569 380.147 362.489 380.14 362.409 380.14C362.342 380.14 362.276 380.14 362.209 380.14C361.182 380.14 360.369 380.447 359.769 381.06C359.169 381.673 358.869 382.56 358.869 383.72V389H356.949ZM368.905 393C368.398 393 367.905 392.913 367.425 392.74C366.945 392.58 366.532 392.34 366.185 392.02L367.005 390.58C367.272 390.833 367.565 391.027 367.885 391.16C368.205 391.293 368.545 391.36 368.905 391.36C369.372 391.36 369.758 391.24 370.065 391C370.372 390.76 370.658 390.333 370.925 389.72L371.585 388.26L371.785 388.02L375.945 378.4H377.825L372.685 390.06C372.378 390.807 372.032 391.393 371.645 391.82C371.272 392.247 370.858 392.547 370.405 392.72C369.952 392.907 369.452 393 368.905 393ZM371.425 389.34L366.585 378.4H368.585L372.705 387.84L371.425 389.34ZM455.822 391.96L456.822 387.92L457.082 389.08C456.695 389.08 456.368 388.96 456.102 388.72C455.848 388.48 455.722 388.153 455.722 387.74C455.722 387.34 455.848 387.013 456.102 386.76C456.368 386.507 456.688 386.38 457.062 386.38C457.448 386.38 457.762 386.513 458.002 386.78C458.242 387.033 458.362 387.353 458.362 387.74C458.362 387.873 458.348 388.007 458.322 388.14C458.308 388.26 458.275 388.407 458.222 388.58C458.182 388.74 458.115 388.94 458.022 389.18L457.082 391.96H455.822ZM476.844 389.16C475.777 389.16 474.757 389 473.784 388.68C472.811 388.347 472.044 387.92 471.484 387.4L472.224 385.84C472.757 386.307 473.437 386.693 474.264 387C475.091 387.307 475.951 387.46 476.844 387.46C477.657 387.46 478.317 387.367 478.824 387.18C479.331 386.993 479.704 386.74 479.944 386.42C480.184 386.087 480.304 385.713 480.304 385.3C480.304 384.82 480.144 384.433 479.824 384.14C479.517 383.847 479.111 383.613 478.604 383.44C478.111 383.253 477.564 383.093 476.964 382.96C476.364 382.827 475.757 382.673 475.144 382.5C474.544 382.313 473.991 382.08 473.484 381.8C472.991 381.52 472.591 381.147 472.284 380.68C471.977 380.2 471.824 379.587 471.824 378.84C471.824 378.12 472.011 377.46 472.384 376.86C472.771 376.247 473.357 375.76 474.144 375.4C474.944 375.027 475.957 374.84 477.184 374.84C477.997 374.84 478.804 374.947 479.604 375.16C480.404 375.373 481.097 375.68 481.684 376.08L481.024 377.68C480.424 377.28 479.791 376.993 479.124 376.82C478.457 376.633 477.811 376.54 477.184 376.54C476.397 376.54 475.751 376.64 475.244 376.84C474.737 377.04 474.364 377.307 474.124 377.64C473.897 377.973 473.784 378.347 473.784 378.76C473.784 379.253 473.937 379.647 474.244 379.94C474.564 380.233 474.971 380.467 475.464 380.64C475.971 380.813 476.524 380.973 477.124 381.12C477.724 381.253 478.324 381.407 478.924 381.58C479.537 381.753 480.091 381.98 480.584 382.26C481.091 382.54 481.497 382.913 481.804 383.38C482.111 383.847 482.264 384.447 482.264 385.18C482.264 385.887 482.071 386.547 481.684 387.16C481.297 387.76 480.697 388.247 479.884 388.62C479.084 388.98 478.071 389.16 476.844 389.16ZM493.566 378.3C494.433 378.3 495.193 378.467 495.846 378.8C496.513 379.133 497.033 379.64 497.406 380.32C497.779 381 497.966 381.86 497.966 382.9V389H496.046V383.12C496.046 382.093 495.793 381.32 495.286 380.8C494.793 380.28 494.093 380.02 493.186 380.02C492.506 380.02 491.913 380.153 491.406 380.42C490.899 380.687 490.506 381.08 490.226 381.6C489.959 382.12 489.826 382.767 489.826 383.54V389H487.906V374.16H489.826V381.26L489.446 380.5C489.793 379.807 490.326 379.267 491.046 378.88C491.766 378.493 492.606 378.3 493.566 378.3ZM511.099 389V386.76L510.999 386.34V382.52C510.999 381.707 510.759 381.08 510.279 380.64C509.813 380.187 509.106 379.96 508.159 379.96C507.533 379.96 506.919 380.067 506.319 380.28C505.719 380.48 505.213 380.753 504.799 381.1L503.999 379.66C504.546 379.22 505.199 378.887 505.959 378.66C506.733 378.42 507.539 378.3 508.379 378.3C509.833 378.3 510.953 378.653 511.739 379.36C512.526 380.067 512.919 381.147 512.919 382.6V389H511.099ZM507.619 389.12C506.833 389.12 506.139 388.987 505.539 388.72C504.953 388.453 504.499 388.087 504.179 387.62C503.859 387.14 503.699 386.6 503.699 386C503.699 385.427 503.833 384.907 504.099 384.44C504.379 383.973 504.826 383.6 505.439 383.32C506.066 383.04 506.906 382.9 507.959 382.9H511.319V384.28H508.039C507.079 384.28 506.433 384.44 506.099 384.76C505.766 385.08 505.599 385.467 505.599 385.92C505.599 386.44 505.806 386.86 506.219 387.18C506.633 387.487 507.206 387.64 507.939 387.64C508.659 387.64 509.286 387.48 509.819 387.16C510.366 386.84 510.759 386.373 510.999 385.76L511.379 387.08C511.126 387.707 510.679 388.207 510.039 388.58C509.399 388.94 508.593 389.12 507.619 389.12ZM525.092 389.12C524.212 389.12 523.406 388.92 522.672 388.52C521.952 388.107 521.372 387.5 520.932 386.7C520.506 385.9 520.292 384.9 520.292 383.7C520.292 382.5 520.499 381.5 520.912 380.7C521.339 379.9 521.912 379.3 522.632 378.9C523.366 378.5 524.186 378.3 525.092 378.3C526.132 378.3 527.052 378.527 527.852 378.98C528.652 379.433 529.286 380.067 529.752 380.88C530.219 381.68 530.452 382.62 530.452 383.7C530.452 384.78 530.219 385.727 529.752 386.54C529.286 387.353 528.652 387.987 527.852 388.44C527.052 388.893 526.132 389.12 525.092 389.12ZM519.472 392.88V378.4H521.312V381.26L521.192 383.72L521.392 386.18V392.88H519.472ZM524.932 387.44C525.612 387.44 526.219 387.287 526.752 386.98C527.299 386.673 527.726 386.24 528.032 385.68C528.352 385.107 528.512 384.447 528.512 383.7C528.512 382.94 528.352 382.287 528.032 381.74C527.726 381.18 527.299 380.747 526.752 380.44C526.219 380.133 525.612 379.98 524.932 379.98C524.266 379.98 523.659 380.133 523.112 380.44C522.579 380.747 522.152 381.18 521.832 381.74C521.526 382.287 521.372 382.94 521.372 383.7C521.372 384.447 521.526 385.107 521.832 385.68C522.152 386.24 522.579 386.673 523.112 386.98C523.659 387.287 524.266 387.44 524.932 387.44ZM536.105 389V378.4H538.025V389H536.105ZM537.065 376.36C536.692 376.36 536.378 376.24 536.125 376C535.885 375.76 535.765 375.467 535.765 375.12C535.765 374.76 535.885 374.46 536.125 374.22C536.378 373.98 536.692 373.86 537.065 373.86C537.438 373.86 537.745 373.98 537.985 374.22C538.238 374.447 538.365 374.733 538.365 375.08C538.365 375.44 538.245 375.747 538.005 376C537.765 376.24 537.452 376.36 537.065 376.36ZM550.351 378.3C551.218 378.3 551.978 378.467 552.631 378.8C553.298 379.133 553.818 379.64 554.191 380.32C554.564 381 554.751 381.86 554.751 382.9V389H552.831V383.12C552.831 382.093 552.578 381.32 552.071 380.8C551.578 380.28 550.878 380.02 549.971 380.02C549.291 380.02 548.698 380.153 548.191 380.42C547.684 380.687 547.291 381.08 547.011 381.6C546.744 382.12 546.611 382.767 546.611 383.54V389H544.691V378.4H546.531V381.26L546.231 380.5C546.578 379.807 547.111 379.267 547.831 378.88C548.551 378.493 549.391 378.3 550.351 378.3ZM565.944 393C564.971 393 564.024 392.86 563.104 392.58C562.198 392.313 561.458 391.927 560.884 391.42L561.804 389.94C562.298 390.367 562.904 390.7 563.624 390.94C564.344 391.193 565.098 391.32 565.884 391.32C567.138 391.32 568.058 391.027 568.644 390.44C569.231 389.853 569.524 388.96 569.524 387.76V385.52L569.724 383.42L569.624 381.3V378.4H571.444V387.56C571.444 389.427 570.978 390.8 570.044 391.68C569.111 392.56 567.744 393 565.944 393ZM565.704 388.56C564.678 388.56 563.758 388.347 562.944 387.92C562.144 387.48 561.504 386.873 561.024 386.1C560.558 385.327 560.324 384.433 560.324 383.42C560.324 382.393 560.558 381.5 561.024 380.74C561.504 379.967 562.144 379.367 562.944 378.94C563.758 378.513 564.678 378.3 565.704 378.3C566.611 378.3 567.438 378.487 568.184 378.86C568.931 379.22 569.524 379.78 569.964 380.54C570.418 381.3 570.644 382.26 570.644 383.42C570.644 384.567 570.418 385.52 569.964 386.28C569.524 387.04 568.931 387.613 568.184 388C567.438 388.373 566.611 388.56 565.704 388.56ZM565.924 386.88C566.631 386.88 567.258 386.733 567.804 386.44C568.351 386.147 568.778 385.74 569.084 385.22C569.404 384.7 569.564 384.1 569.564 383.42C569.564 382.74 569.404 382.14 569.084 381.62C568.778 381.1 568.351 380.7 567.804 380.42C567.258 380.127 566.631 379.98 565.924 379.98C565.218 379.98 564.584 380.127 564.024 380.42C563.478 380.7 563.044 381.1 562.724 381.62C562.418 382.14 562.264 382.74 562.264 383.42C562.264 384.1 562.418 384.7 562.724 385.22C563.044 385.74 563.478 386.147 564.024 386.44C564.584 386.733 565.218 386.88 565.924 386.88ZM593.064 389V386.76L592.964 386.34V382.52C592.964 381.707 592.724 381.08 592.244 380.64C591.777 380.187 591.071 379.96 590.124 379.96C589.497 379.96 588.884 380.067 588.284 380.28C587.684 380.48 587.177 380.753 586.764 381.1L585.964 379.66C586.511 379.22 587.164 378.887 587.924 378.66C588.697 378.42 589.504 378.3 590.344 378.3C591.797 378.3 592.917 378.653 593.704 379.36C594.491 380.067 594.884 381.147 594.884 382.6V389H593.064ZM589.584 389.12C588.797 389.12 588.104 388.987 587.504 388.72C586.917 388.453 586.464 388.087 586.144 387.62C585.824 387.14 585.664 386.6 585.664 386C585.664 385.427 585.797 384.907 586.064 384.44C586.344 383.973 586.791 383.6 587.404 383.32C588.031 383.04 588.871 382.9 589.924 382.9H593.284V384.28H590.004C589.044 384.28 588.397 384.44 588.064 384.76C587.731 385.08 587.564 385.467 587.564 385.92C587.564 386.44 587.771 386.86 588.184 387.18C588.597 387.487 589.171 387.64 589.904 387.64C590.624 387.64 591.251 387.48 591.784 387.16C592.331 386.84 592.724 386.373 592.964 385.76L593.344 387.08C593.091 387.707 592.644 388.207 592.004 388.58C591.364 388.94 590.557 389.12 589.584 389.12ZM610.088 389V375H616.368C617.982 375 619.222 375.327 620.088 375.98C620.955 376.62 621.388 377.5 621.388 378.62C621.388 379.38 621.215 380.02 620.868 380.54C620.535 381.06 620.082 381.46 619.508 381.74C618.935 382.02 618.315 382.16 617.648 382.16L618.008 381.56C618.808 381.56 619.515 381.7 620.128 381.98C620.742 382.26 621.228 382.673 621.588 383.22C621.948 383.753 622.128 384.42 622.128 385.22C622.128 386.42 621.675 387.353 620.768 388.02C619.875 388.673 618.542 389 616.768 389H610.088ZM612.088 387.38H616.688C617.795 387.38 618.642 387.193 619.228 386.82C619.815 386.447 620.108 385.86 620.108 385.06C620.108 384.247 619.815 383.653 619.228 383.28C618.642 382.907 617.795 382.72 616.688 382.72H611.908V381.1H616.188C617.202 381.1 617.988 380.913 618.548 380.54C619.108 380.167 619.388 379.607 619.388 378.86C619.388 378.113 619.108 377.553 618.548 377.18C617.988 376.807 617.202 376.62 616.188 376.62H612.088V387.38ZM627.945 389V378.4H629.785V381.28L629.605 380.56C629.898 379.827 630.392 379.267 631.085 378.88C631.778 378.493 632.632 378.3 633.645 378.3V380.16C633.565 380.147 633.485 380.14 633.405 380.14C633.338 380.14 633.272 380.14 633.205 380.14C632.178 380.14 631.365 380.447 630.765 381.06C630.165 381.673 629.865 382.56 629.865 383.72V389H627.945ZM639.011 389V378.4H640.931V389H639.011ZM639.971 376.36C639.598 376.36 639.285 376.24 639.031 376C638.791 375.76 638.671 375.467 638.671 375.12C638.671 374.76 638.791 374.46 639.031 374.22C639.285 373.98 639.598 373.86 639.971 373.86C640.345 373.86 640.651 373.98 640.891 374.22C641.145 374.447 641.271 374.733 641.271 375.08C641.271 375.44 641.151 375.747 640.911 376C640.671 376.24 640.358 376.36 639.971 376.36ZM652.237 393C651.264 393 650.317 392.86 649.397 392.58C648.491 392.313 647.751 391.927 647.177 391.42L648.097 389.94C648.591 390.367 649.197 390.7 649.917 390.94C650.637 391.193 651.391 391.32 652.177 391.32C653.431 391.32 654.351 391.027 654.937 390.44C655.524 389.853 655.817 388.96 655.817 387.76V385.52L656.017 383.42L655.917 381.3V378.4H657.737V387.56C657.737 389.427 657.271 390.8 656.337 391.68C655.404 392.56 654.037 393 652.237 393ZM651.997 388.56C650.971 388.56 650.051 388.347 649.237 387.92C648.437 387.48 647.797 386.873 647.317 386.1C646.851 385.327 646.617 384.433 646.617 383.42C646.617 382.393 646.851 381.5 647.317 380.74C647.797 379.967 648.437 379.367 649.237 378.94C650.051 378.513 650.971 378.3 651.997 378.3C652.904 378.3 653.731 378.487 654.477 378.86C655.224 379.22 655.817 379.78 656.257 380.54C656.711 381.3 656.937 382.26 656.937 383.42C656.937 384.567 656.711 385.52 656.257 386.28C655.817 387.04 655.224 387.613 654.477 388C653.731 388.373 652.904 388.56 651.997 388.56ZM652.217 386.88C652.924 386.88 653.551 386.733 654.097 386.44C654.644 386.147 655.071 385.74 655.377 385.22C655.697 384.7 655.857 384.1 655.857 383.42C655.857 382.74 655.697 382.14 655.377 381.62C655.071 381.1 654.644 380.7 654.097 380.42C653.551 380.127 652.924 379.98 652.217 379.98C651.511 379.98 650.877 380.127 650.317 380.42C649.771 380.7 649.337 381.1 649.017 381.62C648.711 382.14 648.557 382.74 648.557 383.42C648.557 384.1 648.711 384.7 649.017 385.22C649.337 385.74 649.771 386.147 650.317 386.44C650.877 386.733 651.511 386.88 652.217 386.88ZM670.066 378.3C670.933 378.3 671.693 378.467 672.346 378.8C673.013 379.133 673.533 379.64 673.906 380.32C674.279 381 674.466 381.86 674.466 382.9V389H672.546V383.12C672.546 382.093 672.293 381.32 671.786 380.8C671.293 380.28 670.593 380.02 669.686 380.02C669.006 380.02 668.413 380.153 667.906 380.42C667.399 380.687 667.006 381.08 666.726 381.6C666.459 382.12 666.326 382.767 666.326 383.54V389H664.406V374.16H666.326V381.26L665.946 380.5C666.293 379.807 666.826 379.267 667.546 378.88C668.266 378.493 669.106 378.3 670.066 378.3ZM684.659 389.12C683.593 389.12 682.766 388.833 682.179 388.26C681.593 387.687 681.299 386.867 681.299 385.8V376.08H683.219V385.72C683.219 386.293 683.359 386.733 683.639 387.04C683.933 387.347 684.346 387.5 684.879 387.5C685.479 387.5 685.979 387.333 686.379 387L686.979 388.38C686.686 388.633 686.333 388.82 685.919 388.94C685.519 389.06 685.099 389.12 684.659 389.12ZM679.499 379.98V378.4H686.259V379.98H679.499ZM696.669 389.12C695.536 389.12 694.536 388.887 693.669 388.42C692.816 387.953 692.149 387.313 691.669 386.5C691.202 385.687 690.969 384.753 690.969 383.7C690.969 382.647 691.196 381.713 691.649 380.9C692.116 380.087 692.749 379.453 693.549 379C694.362 378.533 695.276 378.3 696.289 378.3C697.316 378.3 698.222 378.527 699.009 378.98C699.796 379.433 700.409 380.073 700.849 380.9C701.302 381.713 701.529 382.667 701.529 383.76C701.529 383.84 701.522 383.933 701.509 384.04C701.509 384.147 701.502 384.247 701.489 384.34H692.469V382.96H700.489L699.709 383.44C699.722 382.76 699.582 382.153 699.289 381.62C698.996 381.087 698.589 380.673 698.069 380.38C697.562 380.073 696.969 379.92 696.289 379.92C695.622 379.92 695.029 380.073 694.509 380.38C693.989 380.673 693.582 381.093 693.289 381.64C692.996 382.173 692.849 382.787 692.849 383.48V383.8C692.849 384.507 693.009 385.14 693.329 385.7C693.662 386.247 694.122 386.673 694.709 386.98C695.296 387.287 695.969 387.44 696.729 387.44C697.356 387.44 697.922 387.333 698.429 387.12C698.949 386.907 699.402 386.587 699.789 386.16L700.849 387.4C700.369 387.96 699.769 388.387 699.049 388.68C698.342 388.973 697.549 389.12 696.669 389.12ZM707.195 389V378.4H709.035V381.28L708.855 380.56C709.148 379.827 709.642 379.267 710.335 378.88C711.028 378.493 711.882 378.3 712.895 378.3V380.16C712.815 380.147 712.735 380.14 712.655 380.14C712.588 380.14 712.522 380.14 712.455 380.14C711.428 380.14 710.615 380.447 710.015 381.06C709.415 381.673 709.115 382.56 709.115 383.72V389H707.195ZM814.975 389.12C814.602 389.12 814.282 388.993 814.015 388.74C813.749 388.473 813.615 388.14 813.615 387.74C813.615 387.34 813.749 387.013 814.015 386.76C814.282 386.507 814.602 386.38 814.975 386.38C815.335 386.38 815.642 386.507 815.895 386.76C816.162 387.013 816.295 387.34 816.295 387.74C816.295 388.14 816.162 388.473 815.895 388.74C815.642 388.993 815.335 389.12 814.975 389.12Z" fill="black"/>
<path d="M388.988 389L395.228 375H398.428L404.688 389H401.288L396.168 376.64H397.448L392.308 389H388.988ZM392.108 386L392.968 383.54H400.168L401.048 386H392.108ZM415.46 378.08C416.314 378.08 417.074 378.253 417.74 378.6C418.42 378.933 418.954 379.453 419.34 380.16C419.727 380.853 419.92 381.747 419.92 382.84V389H416.8V383.32C416.8 382.453 416.607 381.813 416.22 381.4C415.847 380.987 415.314 380.78 414.62 380.78C414.127 380.78 413.68 380.887 413.28 381.1C412.894 381.3 412.587 381.613 412.36 382.04C412.147 382.467 412.04 383.013 412.04 383.68V389H408.92V378.24H411.9V381.22L411.34 380.32C411.727 379.6 412.28 379.047 413 378.66C413.72 378.273 414.54 378.08 415.46 378.08ZM429.369 389.16C428.449 389.16 427.562 389.053 426.709 388.84C425.869 388.613 425.202 388.333 424.709 388L425.749 385.76C426.242 386.067 426.822 386.32 427.489 386.52C428.169 386.707 428.835 386.8 429.489 386.8C430.209 386.8 430.715 386.713 431.009 386.54C431.315 386.367 431.469 386.127 431.469 385.82C431.469 385.567 431.349 385.38 431.109 385.26C430.882 385.127 430.575 385.027 430.189 384.96C429.802 384.893 429.375 384.827 428.909 384.76C428.455 384.693 427.995 384.607 427.529 384.5C427.062 384.38 426.635 384.207 426.249 383.98C425.862 383.753 425.549 383.447 425.309 383.06C425.082 382.673 424.969 382.173 424.969 381.56C424.969 380.88 425.162 380.28 425.549 379.76C425.949 379.24 426.522 378.833 427.269 378.54C428.015 378.233 428.909 378.08 429.949 378.08C430.682 378.08 431.429 378.16 432.189 378.32C432.949 378.48 433.582 378.713 434.089 379.02L433.049 381.24C432.529 380.933 432.002 380.727 431.469 380.62C430.949 380.5 430.442 380.44 429.949 380.44C429.255 380.44 428.749 380.533 428.429 380.72C428.109 380.907 427.949 381.147 427.949 381.44C427.949 381.707 428.062 381.907 428.289 382.04C428.529 382.173 428.842 382.28 429.229 382.36C429.615 382.44 430.035 382.513 430.489 382.58C430.955 382.633 431.422 382.72 431.889 382.84C432.355 382.96 432.775 383.133 433.149 383.36C433.535 383.573 433.849 383.873 434.089 384.26C434.329 384.633 434.449 385.127 434.449 385.74C434.449 386.407 434.249 387 433.849 387.52C433.449 388.027 432.869 388.427 432.109 388.72C431.362 389.013 430.449 389.16 429.369 389.16ZM445.914 378.08C446.767 378.08 447.527 378.253 448.194 378.6C448.874 378.933 449.407 379.453 449.794 380.16C450.18 380.853 450.374 381.747 450.374 382.84V389H447.254V383.32C447.254 382.453 447.06 381.813 446.674 381.4C446.3 380.987 445.767 380.78 445.074 380.78C444.58 380.78 444.134 380.887 443.734 381.1C443.347 381.3 443.04 381.613 442.814 382.04C442.6 382.467 442.494 383.013 442.494 383.68V389H439.374V374.16H442.494V381.22L441.794 380.32C442.18 379.6 442.734 379.047 443.454 378.66C444.174 378.273 444.994 378.08 445.914 378.08Z" fill="url(#paint12_linear_228_77)"/>
<path d="M729.609 381.3H736.329V383.9H729.609V381.3ZM729.849 389H726.609V375H737.189V377.6H729.849V389ZM746.449 389.16C745.555 389.16 744.755 388.987 744.049 388.64C743.355 388.293 742.815 387.767 742.429 387.06C742.042 386.34 741.849 385.427 741.849 384.32V378.24H744.969V383.86C744.969 384.753 745.155 385.413 745.529 385.84C745.915 386.253 746.455 386.46 747.149 386.46C747.629 386.46 748.055 386.36 748.429 386.16C748.802 385.947 749.095 385.627 749.309 385.2C749.522 384.76 749.629 384.213 749.629 383.56V378.24H752.749V389H749.789V386.04L750.329 386.9C749.969 387.647 749.435 388.213 748.729 388.6C748.035 388.973 747.275 389.16 746.449 389.16ZM763.039 389.16C761.773 389.16 760.786 388.84 760.079 388.2C759.373 387.547 759.019 386.58 759.019 385.3V375.86H762.139V385.26C762.139 385.713 762.259 386.067 762.499 386.32C762.739 386.56 763.066 386.68 763.479 386.68C763.973 386.68 764.393 386.547 764.739 386.28L765.579 388.48C765.259 388.707 764.873 388.88 764.419 389C763.979 389.107 763.519 389.16 763.039 389.16ZM757.359 380.88V378.48H764.819V380.88H757.359ZM774.871 389.16C773.977 389.16 773.177 388.987 772.471 388.64C771.777 388.293 771.237 387.767 770.851 387.06C770.464 386.34 770.271 385.427 770.271 384.32V378.24H773.391V383.86C773.391 384.753 773.577 385.413 773.951 385.84C774.337 386.253 774.877 386.46 775.571 386.46C776.051 386.46 776.477 386.36 776.851 386.16C777.224 385.947 777.517 385.627 777.731 385.2C777.944 384.76 778.051 384.213 778.051 383.56V378.24H781.171V389H778.211V386.04L778.751 386.9C778.391 387.647 777.857 388.213 777.151 388.6C776.457 388.973 775.697 389.16 774.871 389.16ZM787.061 389V378.24H790.041V381.28L789.621 380.4C789.941 379.64 790.454 379.067 791.161 378.68C791.868 378.28 792.728 378.08 793.741 378.08V380.96C793.608 380.947 793.488 380.94 793.381 380.94C793.274 380.927 793.161 380.92 793.041 380.92C792.188 380.92 791.494 381.167 790.961 381.66C790.441 382.14 790.181 382.893 790.181 383.92V389H787.061ZM803.858 389.16C802.631 389.16 801.551 388.92 800.618 388.44C799.698 387.96 798.985 387.307 798.478 386.48C797.971 385.64 797.718 384.687 797.718 383.62C797.718 382.54 797.965 381.587 798.458 380.76C798.965 379.92 799.651 379.267 800.518 378.8C801.385 378.32 802.365 378.08 803.458 378.08C804.511 378.08 805.458 378.307 806.298 378.76C807.151 379.2 807.825 379.84 808.318 380.68C808.811 381.507 809.058 382.5 809.058 383.66C809.058 383.78 809.051 383.92 809.038 384.08C809.025 384.227 809.011 384.367 808.998 384.5H800.258V382.68H807.358L806.158 383.22C806.158 382.66 806.045 382.173 805.818 381.76C805.591 381.347 805.278 381.027 804.878 380.8C804.478 380.56 804.011 380.44 803.478 380.44C802.945 380.44 802.471 380.56 802.058 380.8C801.658 381.027 801.345 381.353 801.118 381.78C800.891 382.193 800.778 382.687 800.778 383.26V383.74C800.778 384.327 800.905 384.847 801.158 385.3C801.425 385.74 801.791 386.08 802.258 386.32C802.738 386.547 803.298 386.66 803.938 386.66C804.511 386.66 805.011 386.573 805.438 386.4C805.878 386.227 806.278 385.967 806.638 385.62L808.298 387.42C807.805 387.98 807.185 388.413 806.438 388.72C805.691 389.013 804.831 389.16 803.858 389.16Z" fill="url(#paint13_linear_228_77)"/>
<defs>
<linearGradient id="paint0_linear_228_77" x1="323.707" y1="117.903" x2="327.499" y2="179.961" gradientUnits="userSpaceOnUse">
<stop stop-color="#EE4E94"/>
<stop offset="1" stop-color="#924CE8"/>
</linearGradient>
<linearGradient id="paint1_linear_228_77" x1="4.70732" y1="10.8803" x2="33.4489" y2="179.632" gradientUnits="userSpaceOnUse">
<stop stop-color="#EE4E94"/>
<stop offset="1" stop-color="#924CE8"/>
</linearGradient>
<linearGradient id="paint2_linear_228_77" x1="4.70732" y1="10.8803" x2="33.4489" y2="179.632" gradientUnits="userSpaceOnUse">
<stop stop-color="#EE4E94"/>
<stop offset="1" stop-color="#924CE8"/>
</linearGradient>
<linearGradient id="paint3_linear_228_77" x1="4.70732" y1="11.0596" x2="34.3766" y2="182.433" gradientUnits="userSpaceOnUse">
<stop stop-color="#EE4E94"/>
<stop offset="1" stop-color="#924CE8"/>
</linearGradient>
<linearGradient id="paint4_linear_228_77" x1="492.024" y1="116.15" x2="350.691" y2="210.182" gradientUnits="userSpaceOnUse">
<stop stop-color="#EE4E94"/>
<stop offset="1" stop-color="#924CE8"/>
</linearGradient>
<linearGradient id="paint5_linear_228_77" x1="597.351" y1="239.518" x2="609.969" y2="291.411" gradientUnits="userSpaceOnUse">
<stop stop-color="#EE4E94"/>
<stop offset="1" stop-color="#924CE8"/>
</linearGradient>
<linearGradient id="paint6_linear_228_77" x1="531.72" y1="238.713" x2="546.218" y2="290.903" gradientUnits="userSpaceOnUse">
<stop stop-color="#EE4E94"/>
<stop offset="1" stop-color="#924CE8"/>
</linearGradient>
<linearGradient id="paint7_linear_228_77" x1="389.689" y1="239.713" x2="400.562" y2="293.742" gradientUnits="userSpaceOnUse">
<stop stop-color="#EE4E94"/>
<stop offset="1" stop-color="#924CE8"/>
</linearGradient>
<linearGradient id="paint8_linear_228_77" x1="245.282" y1="239.746" x2="258.503" y2="292.891" gradientUnits="userSpaceOnUse">
<stop stop-color="#EE4E94"/>
<stop offset="1" stop-color="#924CE8"/>
</linearGradient>
<linearGradient id="paint9_linear_228_77" x1="314.282" y1="239.746" x2="327.503" y2="292.891" gradientUnits="userSpaceOnUse">
<stop stop-color="#EE4E94"/>
<stop offset="1" stop-color="#924CE8"/>
</linearGradient>
<linearGradient id="paint10_linear_228_77" x1="465.706" y1="237.746" x2="478.927" y2="290.891" gradientUnits="userSpaceOnUse">
<stop stop-color="#EE4E94"/>
<stop offset="1" stop-color="#924CE8"/>
</linearGradient>
<linearGradient id="paint11_linear_228_77" x1="201.582" y1="240.318" x2="227.182" y2="257.807" gradientUnits="userSpaceOnUse">
<stop stop-color="#EE4E94"/>
<stop offset="1" stop-color="#924CE8"/>
</linearGradient>
<linearGradient id="paint12_linear_228_77" x1="416.512" y1="370" x2="416.489" y2="389.2" gradientUnits="userSpaceOnUse">
<stop stop-color="#EE4E94"/>
<stop offset="1" stop-color="#924CE8"/>
</linearGradient>
<linearGradient id="paint13_linear_228_77" x1="762.189" y1="370" x2="762.189" y2="394" gradientUnits="userSpaceOnUse">
<stop stop-color="#EE4E94"/>
<stop offset="1" stop-color="#924CE8"/>
</linearGradient>
</defs>
</svg>
