<svg width="607" height="179" viewBox="0 0 607 179" fill="none" xmlns="http://www.w3.org/2000/svg">
<rect x="6.43945" y="73.6021" width="6.43901" height="43.2573" fill="url(#paint0_linear_228_77)"/>
<rect width="6.44068" height="120.527" transform="matrix(0.95038 0.311093 -0.438295 0.898831 62.6621 7.07373)" fill="url(#paint1_linear_228_77)"/>
<rect width="6.44116" height="120.516" transform="matrix(-0.93552 0.353275 0.477902 0.878413 67.8398 12.9126)" fill="url(#paint2_linear_228_77)"/>
<rect opacity="0.34" width="6.45102" height="122.329" transform="matrix(0.552512 -0.833505 0.868775 0.495207 10.3027 15.061)" fill="url(#paint3_linear_228_77)"/>
<path opacity="0.35" d="M123.189 69.728L125.814 75.6238L14.809 124.607L12.2334 119.119L123.189 69.728Z" fill="url(#paint4_linear_228_77)"/>
<ellipse cx="64.3909" cy="9.68447" rx="9.65852" ry="9.68447" fill="#EE4E94"/>
<ellipse cx="9.65852" cy="73.6019" rx="9.65852" ry="9.68447" fill="#D642BC"/>
<ellipse cx="9.65852" cy="123.316" rx="9.65852" ry="9.68447" fill="#924CE8"/>
<ellipse cx="122.342" cy="73.6019" rx="9.65852" ry="9.68447" fill="#D642BC"/>
<ellipse cx="9.65852" cy="9.68447" rx="9.65852" ry="9.68447" fill="#EE4E94"/>
<ellipse cx="122.342" cy="123.316" rx="9.65852" ry="9.68447" fill="#924CE8"/>
<path d="M179.773 90.2183L180.125 97.6714H179.234C179.062 96.3589 178.828 95.4214 178.531 94.8589C178.047 93.9526 177.398 93.2886 176.586 92.8667C175.789 92.4292 174.734 92.2104 173.422 92.2104H168.945V116.492C168.945 118.445 169.156 119.664 169.578 120.148C170.172 120.804 171.086 121.132 172.32 121.132H173.422V122H159.945V121.132H161.07C162.414 121.132 163.367 120.726 163.93 119.914C164.273 119.414 164.445 118.273 164.445 116.492V92.2104H160.625C159.141 92.2104 158.086 92.3198 157.461 92.5386C156.648 92.8354 155.953 93.4058 155.375 94.2495C154.797 95.0933 154.453 96.2339 154.344 97.6714H153.453L153.828 90.2183H179.773ZM198.575 91.9526V104.515H205.559C207.372 104.515 208.583 104.242 209.192 103.695C210.005 102.976 210.458 101.71 210.552 99.8979H211.419V110.96H210.552C210.333 109.414 210.114 108.421 209.895 107.984C209.614 107.437 209.153 107.007 208.513 106.695C207.872 106.382 206.888 106.226 205.559 106.226H198.575V116.703C198.575 118.109 198.638 118.968 198.763 119.281C198.888 119.578 199.106 119.82 199.419 120.007C199.731 120.179 200.325 120.265 201.2 120.265H206.591C208.388 120.265 209.692 120.14 210.505 119.89C211.317 119.64 212.098 119.148 212.848 118.414C213.817 117.445 214.809 115.984 215.825 114.031H216.763L214.02 122H189.528V121.132H190.653C191.403 121.132 192.114 120.953 192.786 120.593C193.286 120.343 193.622 119.968 193.794 119.468C193.981 118.968 194.075 117.945 194.075 116.398V95.7495C194.075 93.7339 193.872 92.4917 193.466 92.0229C192.903 91.3979 191.966 91.0854 190.653 91.0854H189.528V90.2183H214.02L214.372 97.1792H213.458C213.13 95.5073 212.763 94.3589 212.356 93.7339C211.966 93.1089 211.38 92.6323 210.598 92.3042C209.973 92.0698 208.872 91.9526 207.294 91.9526H198.575ZM253.986 89.4917L254.713 100.296H253.986C253.017 97.062 251.634 94.7339 249.838 93.312C248.041 91.8901 245.884 91.1792 243.369 91.1792C241.259 91.1792 239.353 91.7183 237.65 92.7964C235.947 93.8589 234.603 95.562 233.619 97.9058C232.65 100.25 232.166 103.164 232.166 106.648C232.166 109.523 232.627 112.015 233.548 114.125C234.47 116.234 235.853 117.851 237.697 118.976C239.556 120.101 241.673 120.664 244.048 120.664C246.111 120.664 247.931 120.226 249.509 119.351C251.088 118.46 252.822 116.703 254.713 114.078L255.439 114.546C253.845 117.375 251.986 119.445 249.861 120.757C247.736 122.07 245.213 122.726 242.291 122.726C237.025 122.726 232.947 120.773 230.056 116.867C227.9 113.96 226.822 110.539 226.822 106.601C226.822 103.429 227.533 100.515 228.955 97.8589C230.377 95.2026 232.33 93.1479 234.814 91.6948C237.314 90.2261 240.041 89.4917 242.994 89.4917C245.291 89.4917 247.556 90.0542 249.791 91.1792C250.447 91.5229 250.916 91.6948 251.197 91.6948C251.619 91.6948 251.986 91.5464 252.298 91.2495C252.705 90.8276 252.994 90.2417 253.166 89.4917H253.986ZM274.17 104.96H288.936V95.8667C288.936 94.2417 288.834 93.1714 288.631 92.6558C288.475 92.2651 288.147 91.9292 287.647 91.6479C286.975 91.2729 286.264 91.0854 285.514 91.0854H284.389V90.2183H297.983V91.0854H296.858C296.108 91.0854 295.397 91.2651 294.725 91.6245C294.225 91.8745 293.881 92.2573 293.694 92.7729C293.522 93.2729 293.436 94.3042 293.436 95.8667V116.375C293.436 117.984 293.537 119.046 293.741 119.562C293.897 119.953 294.217 120.289 294.702 120.57C295.389 120.945 296.108 121.132 296.858 121.132H297.983V122H284.389V121.132H285.514C286.811 121.132 287.756 120.75 288.35 119.984C288.741 119.484 288.936 118.281 288.936 116.375V106.695H274.17V116.375C274.17 117.984 274.272 119.046 274.475 119.562C274.631 119.953 274.959 120.289 275.459 120.57C276.131 120.945 276.842 121.132 277.592 121.132H278.741V122H265.123V121.132H266.248C267.561 121.132 268.514 120.75 269.108 119.984C269.483 119.484 269.67 118.281 269.67 116.375V95.8667C269.67 94.2417 269.569 93.1714 269.366 92.6558C269.209 92.2651 268.889 91.9292 268.405 91.6479C267.717 91.2729 266.998 91.0854 266.248 91.0854H265.123V90.2183H278.741V91.0854H277.592C276.842 91.0854 276.131 91.2651 275.459 91.6245C274.975 91.8745 274.639 92.2573 274.452 92.7729C274.264 93.2729 274.17 94.3042 274.17 95.8667V104.96ZM305.558 90.2183H314.183L333.613 114.054V95.7261C333.613 93.7729 333.394 92.5542 332.956 92.0698C332.378 91.4136 331.464 91.0854 330.214 91.0854H329.113V90.2183H340.175V91.0854H339.05C337.706 91.0854 336.753 91.4917 336.191 92.3042C335.847 92.8042 335.675 93.9448 335.675 95.7261V122.515H334.831L313.878 96.9214V116.492C313.878 118.445 314.089 119.664 314.511 120.148C315.105 120.804 316.019 121.132 317.253 121.132H318.378V122H307.316V121.132H308.417C309.777 121.132 310.738 120.726 311.3 119.914C311.644 119.414 311.816 118.273 311.816 116.492V94.3901C310.894 93.312 310.191 92.6011 309.706 92.2573C309.238 91.9136 308.542 91.5933 307.62 91.2964C307.167 91.1558 306.48 91.0854 305.558 91.0854V90.2183ZM365.633 89.4917C369.758 89.4917 373.328 91.062 376.344 94.2026C379.375 97.3276 380.891 101.234 380.891 105.921C380.891 110.75 379.367 114.757 376.32 117.945C373.273 121.132 369.586 122.726 365.258 122.726C360.883 122.726 357.203 121.171 354.219 118.062C351.25 114.953 349.766 110.929 349.766 105.992C349.766 100.945 351.484 96.8276 354.922 93.6401C357.906 90.8745 361.477 89.4917 365.633 89.4917ZM365.188 91.2026C362.344 91.2026 360.062 92.2573 358.344 94.3667C356.203 96.9917 355.133 100.835 355.133 105.898C355.133 111.085 356.242 115.078 358.461 117.875C360.164 120 362.414 121.062 365.211 121.062C368.195 121.062 370.656 119.898 372.594 117.57C374.547 115.242 375.523 111.57 375.523 106.554C375.523 101.117 374.453 97.062 372.312 94.3901C370.594 92.2651 368.219 91.2026 365.188 91.2026ZM417.481 113.21L418.255 113.375L415.536 122H390.927V121.132H392.122C393.466 121.132 394.427 120.695 395.005 119.82C395.333 119.32 395.497 118.164 395.497 116.351V95.8433C395.497 93.8589 395.278 92.6167 394.841 92.1167C394.231 91.4292 393.325 91.0854 392.122 91.0854H390.927V90.2183H405.317V91.0854C403.63 91.0698 402.442 91.2261 401.755 91.5542C401.083 91.8823 400.622 92.2964 400.372 92.7964C400.122 93.2964 399.997 94.4917 399.997 96.3823V116.351C399.997 117.648 400.122 118.539 400.372 119.023C400.559 119.351 400.848 119.593 401.239 119.75C401.63 119.906 402.848 119.984 404.895 119.984H407.216C409.653 119.984 411.364 119.804 412.348 119.445C413.333 119.085 414.231 118.453 415.044 117.546C415.856 116.625 416.669 115.179 417.481 113.21ZM444.064 89.4917C448.189 89.4917 451.759 91.062 454.775 94.2026C457.806 97.3276 459.322 101.234 459.322 105.921C459.322 110.75 457.798 114.757 454.752 117.945C451.705 121.132 448.017 122.726 443.689 122.726C439.314 122.726 435.634 121.171 432.65 118.062C429.681 114.953 428.197 110.929 428.197 105.992C428.197 100.945 429.916 96.8276 433.353 93.6401C436.337 90.8745 439.908 89.4917 444.064 89.4917ZM443.619 91.2026C440.775 91.2026 438.494 92.2573 436.775 94.3667C434.634 96.9917 433.564 100.835 433.564 105.898C433.564 111.085 434.673 115.078 436.892 117.875C438.595 120 440.845 121.062 443.642 121.062C446.627 121.062 449.087 119.898 451.025 117.57C452.978 115.242 453.955 111.57 453.955 106.554C453.955 101.117 452.884 97.062 450.744 94.3901C449.025 92.2651 446.65 91.2026 443.619 91.2026ZM497.858 89.4917L498.678 99.5229H497.858C497.03 97.0229 495.959 95.1401 494.647 93.8745C492.756 92.0464 490.327 91.1323 487.358 91.1323C483.311 91.1323 480.233 92.7339 478.123 95.937C476.358 98.6401 475.475 101.859 475.475 105.593C475.475 108.625 476.061 111.39 477.233 113.89C478.405 116.39 479.936 118.226 481.827 119.398C483.733 120.554 485.686 121.132 487.686 121.132C488.858 121.132 489.991 120.984 491.084 120.687C492.178 120.39 493.233 119.953 494.248 119.375V110.187C494.248 108.593 494.123 107.554 493.873 107.07C493.639 106.57 493.264 106.195 492.748 105.945C492.248 105.679 491.358 105.546 490.077 105.546V104.656H502.381V105.546H501.795C500.577 105.546 499.741 105.953 499.288 106.765C498.975 107.343 498.819 108.484 498.819 110.187V119.914C497.022 120.882 495.248 121.593 493.498 122.046C491.748 122.5 489.803 122.726 487.663 122.726C481.522 122.726 476.858 120.757 473.67 116.82C471.28 113.867 470.084 110.46 470.084 106.601C470.084 103.804 470.756 101.125 472.1 98.562C473.694 95.5151 475.881 93.1714 478.663 91.5308C480.991 90.1714 483.741 89.4917 486.913 89.4917C488.069 89.4917 489.116 89.5854 490.053 89.7729C491.006 89.9604 492.35 90.3745 494.084 91.0151C494.959 91.3433 495.545 91.5073 495.842 91.5073C496.139 91.5073 496.389 91.3745 496.592 91.1089C496.811 90.8276 496.944 90.2886 496.991 89.4917H497.858ZM525.097 121.132V122H511.48V121.132H512.605C513.917 121.132 514.87 120.75 515.464 119.984C515.839 119.484 516.027 118.281 516.027 116.375V95.8433C516.027 94.2339 515.925 93.1714 515.722 92.6558C515.566 92.2651 515.245 91.9292 514.761 91.6479C514.073 91.2729 513.355 91.0854 512.605 91.0854H511.48V90.2183H525.097V91.0854H523.948C522.652 91.0854 521.706 91.4683 521.112 92.2339C520.722 92.7339 520.527 93.937 520.527 95.8433V116.375C520.527 117.984 520.628 119.046 520.831 119.562C520.987 119.953 521.316 120.289 521.816 120.57C522.487 120.945 523.198 121.132 523.948 121.132H525.097ZM543.5 91.9526V104.515H550.484C552.297 104.515 553.508 104.242 554.117 103.695C554.93 102.976 555.383 101.71 555.477 99.8979H556.344V110.96H555.477C555.258 109.414 555.039 108.421 554.82 107.984C554.539 107.437 554.078 107.007 553.438 106.695C552.797 106.382 551.812 106.226 550.484 106.226H543.5V116.703C543.5 118.109 543.562 118.968 543.688 119.281C543.812 119.578 544.031 119.82 544.344 120.007C544.656 120.179 545.25 120.265 546.125 120.265H551.516C553.312 120.265 554.617 120.14 555.43 119.89C556.242 119.64 557.023 119.148 557.773 118.414C558.742 117.445 559.734 115.984 560.75 114.031H561.688L558.945 122H534.453V121.132H535.578C536.328 121.132 537.039 120.953 537.711 120.593C538.211 120.343 538.547 119.968 538.719 119.468C538.906 118.968 539 117.945 539 116.398V95.7495C539 93.7339 538.797 92.4917 538.391 92.0229C537.828 91.3979 536.891 91.0854 535.578 91.0854H534.453V90.2183H558.945L559.297 97.1792H558.383C558.055 95.5073 557.688 94.3589 557.281 93.7339C556.891 93.1089 556.305 92.6323 555.523 92.3042C554.898 92.0698 553.797 91.9526 552.219 91.9526H543.5ZM592.02 89.4917V100.484H591.153C590.872 98.3745 590.364 96.6948 589.63 95.4448C588.911 94.1948 587.88 93.2026 586.536 92.4683C585.192 91.7339 583.802 91.3667 582.364 91.3667C580.739 91.3667 579.395 91.8667 578.333 92.8667C577.27 93.8511 576.739 94.9761 576.739 96.2417C576.739 97.2104 577.075 98.0933 577.747 98.8901C578.716 100.062 581.02 101.625 584.661 103.578C587.63 105.171 589.653 106.398 590.731 107.257C591.825 108.101 592.661 109.101 593.239 110.257C593.833 111.414 594.13 112.625 594.13 113.89C594.13 116.296 593.192 118.375 591.317 120.125C589.458 121.859 587.059 122.726 584.122 122.726C583.2 122.726 582.333 122.656 581.52 122.515C581.036 122.437 580.028 122.156 578.497 121.671C576.981 121.171 576.02 120.921 575.614 120.921C575.223 120.921 574.911 121.039 574.677 121.273C574.458 121.507 574.294 121.992 574.184 122.726H573.317V111.828H574.184C574.591 114.109 575.138 115.82 575.825 116.96C576.513 118.085 577.559 119.023 578.966 119.773C580.388 120.523 581.942 120.898 583.63 120.898C585.583 120.898 587.122 120.382 588.247 119.351C589.388 118.32 589.958 117.101 589.958 115.695C589.958 114.914 589.739 114.125 589.302 113.328C588.88 112.531 588.216 111.789 587.309 111.101C586.7 110.632 585.036 109.64 582.317 108.125C579.598 106.593 577.661 105.375 576.505 104.468C575.364 103.562 574.497 102.562 573.903 101.468C573.309 100.375 573.013 99.1714 573.013 97.8589C573.013 95.5776 573.888 93.6167 575.638 91.9761C577.388 90.3198 579.614 89.4917 582.317 89.4917C584.005 89.4917 585.794 89.9058 587.684 90.7339C588.559 91.1245 589.177 91.3198 589.536 91.3198C589.942 91.3198 590.27 91.2026 590.52 90.9683C590.786 90.7183 590.997 90.2261 591.153 89.4917H592.02Z" fill="#4F4F4F"/>
<path d="M585.96 2H595.56V69.2H585.96V2ZM547.368 69.2H537.768V2H547.368V69.2ZM586.824 39.248H546.408V30.896H586.824V39.248Z" fill="url(#paint5_linear_228_77)"/>
<path d="M500.751 69.736C495.631 69.736 490.735 68.968 486.063 67.432C481.391 65.832 477.711 63.784 475.023 61.288L478.575 53.8C481.135 56.04 484.399 57.896 488.367 59.368C492.335 60.84 496.463 61.576 500.751 61.576C504.655 61.576 507.823 61.128 510.255 60.232C512.687 59.336 514.479 58.12 515.631 56.584C516.783 54.984 517.359 53.192 517.359 51.208C517.359 48.904 516.591 47.048 515.055 45.64C513.583 44.232 511.631 43.112 509.199 42.28C506.831 41.384 504.207 40.616 501.327 39.976C498.447 39.336 495.535 38.6 492.591 37.768C489.711 36.872 487.055 35.752 484.623 34.408C482.255 33.064 480.335 31.272 478.863 29.032C477.391 26.728 476.655 23.784 476.655 20.2C476.655 16.744 477.551 13.576 479.343 10.696C481.199 7.752 484.015 5.416 487.791 3.688C491.631 1.896 496.495 1 502.383 1C506.287 1 510.159 1.512 513.999 2.536C517.839 3.56 521.167 5.032 523.983 6.952L520.815 14.632C517.935 12.712 514.895 11.336 511.695 10.504C508.495 9.608 505.391 9.16 502.383 9.16C498.607 9.16 495.503 9.64 493.071 10.6C490.639 11.56 488.847 12.84 487.695 14.44C486.607 16.04 486.063 17.832 486.063 19.816C486.063 22.184 486.799 24.072 488.271 25.48C489.807 26.888 491.759 28.008 494.127 28.84C496.559 29.672 499.215 30.44 502.095 31.144C504.975 31.784 507.855 32.52 510.735 33.352C513.679 34.184 516.335 35.272 518.703 36.616C521.135 37.96 523.087 39.752 524.559 41.992C526.031 44.232 526.767 47.112 526.767 50.632C526.767 54.024 525.839 57.192 523.983 60.136C522.127 63.016 519.247 65.352 515.343 67.144C511.503 68.872 506.639 69.736 500.751 69.736Z" fill="url(#paint6_linear_228_77)"/>
<path d="M359.408 70.736C354.288 70.736 349.52 69.872 345.104 68.144C340.752 66.416 336.976 64.016 333.776 60.944C330.576 57.808 328.08 54.16 326.288 50C324.496 45.84 323.6 41.296 323.6 36.368C323.6 31.44 324.496 26.896 326.288 22.736C328.08 18.576 330.576 14.96 333.776 11.888C336.976 8.752 340.752 6.32 345.104 4.592C349.456 2.864 354.224 2 359.408 2C364.528 2 369.232 2.864 373.52 4.592C377.872 6.256 381.648 8.656 384.848 11.792C388.112 14.864 390.608 18.48 392.336 22.64C394.128 26.8 395.024 31.376 395.024 36.368C395.024 41.36 394.128 45.936 392.336 50.096C390.608 54.256 388.112 57.904 384.848 61.04C381.648 64.112 377.872 66.512 373.52 68.24C369.232 69.904 364.528 70.736 359.408 70.736ZM359.408 62.192C363.12 62.192 366.544 61.552 369.68 60.272C372.88 58.992 375.632 57.2 377.936 54.896C380.304 52.528 382.128 49.776 383.408 46.64C384.752 43.504 385.424 40.08 385.424 36.368C385.424 32.656 384.752 29.232 383.408 26.096C382.128 22.96 380.304 20.24 377.936 17.936C375.632 15.568 372.88 13.744 369.68 12.464C366.544 11.184 363.12 10.544 359.408 10.544C355.632 10.544 352.144 11.184 348.944 12.464C345.808 13.744 343.056 15.568 340.688 17.936C338.32 20.24 336.464 22.96 335.12 26.096C333.84 29.232 333.2 32.656 333.2 36.368C333.2 40.08 333.84 43.504 335.12 46.64C336.464 49.776 338.32 52.528 340.688 54.896C343.056 57.2 345.808 58.992 348.944 60.272C352.144 61.552 355.632 62.192 359.408 62.192Z" fill="url(#paint7_linear_228_77)"/>
<path d="M185.6 70V21.5V2L236.1 51L233.965 57.0357V2H243.6L243.1 71L216.6 45L185.6 15V2V21.5L195.234 31V70H185.6Z" fill="url(#paint8_linear_228_77)"/>
<path d="M254.6 70V21.5V2L305.1 51L302.965 57.0357V2H312.6L312.1 71L285.6 45L254.6 15V2V21.5L264.234 31V70H254.6Z" fill="url(#paint9_linear_228_77)"/>
<path d="M406.023 68V19.5V0L456.523 49L454.389 55.0357V0H464.023L463.523 69L437.023 43L406.023 13V0V19.5L415.658 29V68H406.023Z" fill="url(#paint10_linear_228_77)"/>
<path d="M165 69.9998V2.7998H174.6V69.9998H165Z" fill="url(#paint11_linear_228_77)"/>
<path d="M71.1 174V160H73.1V174H71.1ZM85.6714 163.3C86.5381 163.3 87.2981 163.467 87.9514 163.8C88.6181 164.133 89.1381 164.64 89.5114 165.32C89.8847 166 90.0714 166.86 90.0714 167.9V174H88.1514V168.12C88.1514 167.093 87.8981 166.32 87.3914 165.8C86.8981 165.28 86.1981 165.02 85.2914 165.02C84.6114 165.02 84.0181 165.153 83.5114 165.42C83.0047 165.687 82.6114 166.08 82.3314 166.6C82.0647 167.12 81.9314 167.767 81.9314 168.54V174H80.0114V163.4H81.8514V166.26L81.5514 165.5C81.8981 164.807 82.4314 164.267 83.1514 163.88C83.8714 163.493 84.7114 163.3 85.6714 163.3ZM102.285 163.3C103.151 163.3 103.911 163.467 104.565 163.8C105.231 164.133 105.751 164.64 106.125 165.32C106.498 166 106.685 166.86 106.685 167.9V174H104.765V168.12C104.765 167.093 104.511 166.32 104.005 165.8C103.511 165.28 102.811 165.02 101.905 165.02C101.225 165.02 100.631 165.153 100.125 165.42C99.618 165.687 99.2247 166.08 98.9447 166.6C98.678 167.12 98.5447 167.767 98.5447 168.54V174H96.6247V163.4H98.4647V166.26L98.1647 165.5C98.5114 164.807 99.0447 164.267 99.7647 163.88C100.485 163.493 101.325 163.3 102.285 163.3ZM117.778 174.12C116.711 174.12 115.765 173.887 114.938 173.42C114.111 172.953 113.458 172.313 112.978 171.5C112.498 170.673 112.258 169.74 112.258 168.7C112.258 167.647 112.498 166.713 112.978 165.9C113.458 165.087 114.111 164.453 114.938 164C115.765 163.533 116.711 163.3 117.778 163.3C118.831 163.3 119.771 163.533 120.598 164C121.438 164.453 122.091 165.087 122.558 165.9C123.038 166.7 123.278 167.633 123.278 168.7C123.278 169.753 123.038 170.687 122.558 171.5C122.091 172.313 121.438 172.953 120.598 173.42C119.771 173.887 118.831 174.12 117.778 174.12ZM117.778 172.44C118.458 172.44 119.065 172.287 119.598 171.98C120.145 171.673 120.571 171.24 120.878 170.68C121.185 170.107 121.338 169.447 121.338 168.7C121.338 167.94 121.185 167.287 120.878 166.74C120.571 166.18 120.145 165.747 119.598 165.44C119.065 165.133 118.458 164.98 117.778 164.98C117.098 164.98 116.491 165.133 115.958 165.44C115.425 165.747 114.998 166.18 114.678 166.74C114.358 167.287 114.198 167.94 114.198 168.7C114.198 169.447 114.358 170.107 114.678 170.68C114.998 171.24 115.425 171.673 115.958 171.98C116.491 172.287 117.098 172.44 117.778 172.44ZM131.42 174L126.78 163.4H128.78L132.9 173H131.94L136.14 163.4H138.02L133.38 174H131.42ZM149.06 174V171.76L148.96 171.34V167.52C148.96 166.707 148.72 166.08 148.24 165.64C147.773 165.187 147.067 164.96 146.12 164.96C145.493 164.96 144.88 165.067 144.28 165.28C143.68 165.48 143.173 165.753 142.76 166.1L141.96 164.66C142.507 164.22 143.16 163.887 143.92 163.66C144.693 163.42 145.5 163.3 146.34 163.3C147.793 163.3 148.913 163.653 149.7 164.36C150.487 165.067 150.88 166.147 150.88 167.6V174H149.06ZM145.58 174.12C144.793 174.12 144.1 173.987 143.5 173.72C142.913 173.453 142.46 173.087 142.14 172.62C141.82 172.14 141.66 171.6 141.66 171C141.66 170.427 141.793 169.907 142.06 169.44C142.34 168.973 142.787 168.6 143.4 168.32C144.027 168.04 144.867 167.9 145.92 167.9H149.28V169.28H146C145.04 169.28 144.393 169.44 144.06 169.76C143.727 170.08 143.56 170.467 143.56 170.92C143.56 171.44 143.767 171.86 144.18 172.18C144.593 172.487 145.167 172.64 145.9 172.64C146.62 172.64 147.247 172.48 147.78 172.16C148.327 171.84 148.72 171.373 148.96 170.76L149.34 172.08C149.087 172.707 148.64 173.207 148 173.58C147.36 173.94 146.553 174.12 145.58 174.12ZM161.073 174.12C160.007 174.12 159.18 173.833 158.593 173.26C158.007 172.687 157.713 171.867 157.713 170.8V161.08H159.633V170.72C159.633 171.293 159.773 171.733 160.053 172.04C160.347 172.347 160.76 172.5 161.293 172.5C161.893 172.5 162.393 172.333 162.793 172L163.393 173.38C163.1 173.633 162.747 173.82 162.333 173.94C161.933 174.06 161.513 174.12 161.073 174.12ZM155.913 164.98V163.4H162.673V164.98H155.913ZM168.715 174V163.4H170.635V174H168.715ZM169.675 161.36C169.301 161.36 168.988 161.24 168.735 161C168.495 160.76 168.375 160.467 168.375 160.12C168.375 159.76 168.495 159.46 168.735 159.22C168.988 158.98 169.301 158.86 169.675 158.86C170.048 158.86 170.355 158.98 170.595 159.22C170.848 159.447 170.975 159.733 170.975 160.08C170.975 160.44 170.855 160.747 170.615 161C170.375 161.24 170.061 161.36 169.675 161.36ZM181.84 174.12C180.774 174.12 179.827 173.887 179 173.42C178.174 172.953 177.52 172.313 177.04 171.5C176.56 170.673 176.32 169.74 176.32 168.7C176.32 167.647 176.56 166.713 177.04 165.9C177.52 165.087 178.174 164.453 179 164C179.827 163.533 180.774 163.3 181.84 163.3C182.894 163.3 183.834 163.533 184.66 164C185.5 164.453 186.154 165.087 186.62 165.9C187.1 166.7 187.34 167.633 187.34 168.7C187.34 169.753 187.1 170.687 186.62 171.5C186.154 172.313 185.5 172.953 184.66 173.42C183.834 173.887 182.894 174.12 181.84 174.12ZM181.84 172.44C182.52 172.44 183.127 172.287 183.66 171.98C184.207 171.673 184.634 171.24 184.94 170.68C185.247 170.107 185.4 169.447 185.4 168.7C185.4 167.94 185.247 167.287 184.94 166.74C184.634 166.18 184.207 165.747 183.66 165.44C183.127 165.133 182.52 164.98 181.84 164.98C181.16 164.98 180.554 165.133 180.02 165.44C179.487 165.747 179.06 166.18 178.74 166.74C178.42 167.287 178.26 167.94 178.26 168.7C178.26 169.447 178.42 170.107 178.74 170.68C179.06 171.24 179.487 171.673 180.02 171.98C180.554 172.287 181.16 172.44 181.84 172.44ZM198.656 163.3C199.522 163.3 200.282 163.467 200.936 163.8C201.602 164.133 202.122 164.64 202.496 165.32C202.869 166 203.056 166.86 203.056 167.9V174H201.136V168.12C201.136 167.093 200.882 166.32 200.376 165.8C199.882 165.28 199.182 165.02 198.276 165.02C197.596 165.02 197.002 165.153 196.496 165.42C195.989 165.687 195.596 166.08 195.316 166.6C195.049 167.12 194.916 167.767 194.916 168.54V174H192.996V163.4H194.836V166.26L194.536 165.5C194.882 164.807 195.416 164.267 196.136 163.88C196.856 163.493 197.696 163.3 198.656 163.3ZM218.26 174V160H224.54C226.153 160 227.393 160.327 228.26 160.98C229.127 161.62 229.56 162.5 229.56 163.62C229.56 164.38 229.387 165.02 229.04 165.54C228.707 166.06 228.253 166.46 227.68 166.74C227.107 167.02 226.487 167.16 225.82 167.16L226.18 166.56C226.98 166.56 227.687 166.7 228.3 166.98C228.913 167.26 229.4 167.673 229.76 168.22C230.12 168.753 230.3 169.42 230.3 170.22C230.3 171.42 229.847 172.353 228.94 173.02C228.047 173.673 226.713 174 224.94 174H218.26ZM220.26 172.38H224.86C225.967 172.38 226.813 172.193 227.4 171.82C227.987 171.447 228.28 170.86 228.28 170.06C228.28 169.247 227.987 168.653 227.4 168.28C226.813 167.907 225.967 167.72 224.86 167.72H220.08V166.1H224.36C225.373 166.1 226.16 165.913 226.72 165.54C227.28 165.167 227.56 164.607 227.56 163.86C227.56 163.113 227.28 162.553 226.72 162.18C226.16 161.807 225.373 161.62 224.36 161.62H220.26V172.38ZM240.837 174.12C239.704 174.12 238.704 173.887 237.837 173.42C236.984 172.953 236.317 172.313 235.837 171.5C235.37 170.687 235.137 169.753 235.137 168.7C235.137 167.647 235.364 166.713 235.817 165.9C236.284 165.087 236.917 164.453 237.717 164C238.53 163.533 239.444 163.3 240.457 163.3C241.484 163.3 242.39 163.527 243.177 163.98C243.964 164.433 244.577 165.073 245.017 165.9C245.47 166.713 245.697 167.667 245.697 168.76C245.697 168.84 245.69 168.933 245.677 169.04C245.677 169.147 245.67 169.247 245.657 169.34H236.637V167.96H244.657L243.877 168.44C243.89 167.76 243.75 167.153 243.457 166.62C243.164 166.087 242.757 165.673 242.237 165.38C241.73 165.073 241.137 164.92 240.457 164.92C239.79 164.92 239.197 165.073 238.677 165.38C238.157 165.673 237.75 166.093 237.457 166.64C237.164 167.173 237.017 167.787 237.017 168.48V168.8C237.017 169.507 237.177 170.14 237.497 170.7C237.83 171.247 238.29 171.673 238.877 171.98C239.464 172.287 240.137 172.44 240.897 172.44C241.524 172.44 242.09 172.333 242.597 172.12C243.117 171.907 243.57 171.587 243.957 171.16L245.017 172.4C244.537 172.96 243.937 173.387 243.217 173.68C242.51 173.973 241.717 174.12 240.837 174.12ZM256.003 178C255.03 178 254.083 177.86 253.163 177.58C252.256 177.313 251.516 176.927 250.943 176.42L251.863 174.94C252.356 175.367 252.963 175.7 253.683 175.94C254.403 176.193 255.156 176.32 255.943 176.32C257.196 176.32 258.116 176.027 258.703 175.44C259.29 174.853 259.583 173.96 259.583 172.76V170.52L259.783 168.42L259.683 166.3V163.4H261.503V172.56C261.503 174.427 261.036 175.8 260.103 176.68C259.17 177.56 257.803 178 256.003 178ZM255.763 173.56C254.736 173.56 253.816 173.347 253.003 172.92C252.203 172.48 251.563 171.873 251.083 171.1C250.616 170.327 250.383 169.433 250.383 168.42C250.383 167.393 250.616 166.5 251.083 165.74C251.563 164.967 252.203 164.367 253.003 163.94C253.816 163.513 254.736 163.3 255.763 163.3C256.67 163.3 257.496 163.487 258.243 163.86C258.99 164.22 259.583 164.78 260.023 165.54C260.476 166.3 260.703 167.26 260.703 168.42C260.703 169.567 260.476 170.52 260.023 171.28C259.583 172.04 258.99 172.613 258.243 173C257.496 173.373 256.67 173.56 255.763 173.56ZM255.983 171.88C256.69 171.88 257.316 171.733 257.863 171.44C258.41 171.147 258.836 170.74 259.143 170.22C259.463 169.7 259.623 169.1 259.623 168.42C259.623 167.74 259.463 167.14 259.143 166.62C258.836 166.1 258.41 165.7 257.863 165.42C257.316 165.127 256.69 164.98 255.983 164.98C255.276 164.98 254.643 165.127 254.083 165.42C253.536 165.7 253.103 166.1 252.783 166.62C252.476 167.14 252.323 167.74 252.323 168.42C252.323 169.1 252.476 169.7 252.783 170.22C253.103 170.74 253.536 171.147 254.083 171.44C254.643 171.733 255.276 171.88 255.983 171.88ZM268.172 174V163.4H270.092V174H268.172ZM269.132 161.36C268.758 161.36 268.445 161.24 268.192 161C267.952 160.76 267.832 160.467 267.832 160.12C267.832 159.76 267.952 159.46 268.192 159.22C268.445 158.98 268.758 158.86 269.132 158.86C269.505 158.86 269.812 158.98 270.052 159.22C270.305 159.447 270.432 159.733 270.432 160.08C270.432 160.44 270.312 160.747 270.072 161C269.832 161.24 269.518 161.36 269.132 161.36ZM282.418 163.3C283.284 163.3 284.044 163.467 284.698 163.8C285.364 164.133 285.884 164.64 286.258 165.32C286.631 166 286.818 166.86 286.818 167.9V174H284.898V168.12C284.898 167.093 284.644 166.32 284.138 165.8C283.644 165.28 282.944 165.02 282.038 165.02C281.358 165.02 280.764 165.153 280.258 165.42C279.751 165.687 279.358 166.08 279.078 166.6C278.811 167.12 278.678 167.767 278.678 168.54V174H276.758V163.4H278.598V166.26L278.298 165.5C278.644 164.807 279.178 164.267 279.898 163.88C280.618 163.493 281.458 163.3 282.418 163.3ZM296.411 174.12C295.531 174.12 294.691 174 293.891 173.76C293.104 173.52 292.484 173.227 292.031 172.88L292.831 171.36C293.284 171.667 293.844 171.927 294.511 172.14C295.177 172.353 295.857 172.46 296.551 172.46C297.444 172.46 298.084 172.333 298.471 172.08C298.871 171.827 299.071 171.473 299.071 171.02C299.071 170.687 298.951 170.427 298.711 170.24C298.471 170.053 298.151 169.913 297.751 169.82C297.364 169.727 296.931 169.647 296.451 169.58C295.971 169.5 295.491 169.407 295.011 169.3C294.531 169.18 294.091 169.02 293.691 168.82C293.291 168.607 292.971 168.32 292.731 167.96C292.491 167.587 292.371 167.093 292.371 166.48C292.371 165.84 292.551 165.28 292.911 164.8C293.271 164.32 293.777 163.953 294.431 163.7C295.097 163.433 295.884 163.3 296.791 163.3C297.484 163.3 298.184 163.387 298.891 163.56C299.611 163.72 300.197 163.953 300.651 164.26L299.831 165.78C299.351 165.46 298.851 165.24 298.331 165.12C297.811 165 297.291 164.94 296.771 164.94C295.931 164.94 295.304 165.08 294.891 165.36C294.477 165.627 294.271 165.973 294.271 166.4C294.271 166.76 294.391 167.04 294.631 167.24C294.884 167.427 295.204 167.573 295.591 167.68C295.991 167.787 296.431 167.88 296.911 167.96C297.391 168.027 297.871 168.12 298.351 168.24C298.831 168.347 299.264 168.5 299.651 168.7C300.051 168.9 300.371 169.18 300.611 169.54C300.864 169.9 300.991 170.38 300.991 170.98C300.991 171.62 300.804 172.173 300.431 172.64C300.057 173.107 299.531 173.473 298.851 173.74C298.171 173.993 297.357 174.12 296.411 174.12ZM317.001 174L313.061 163.4H314.881L318.381 173H317.521L321.161 163.4H322.781L326.341 173H325.501L329.081 163.4H330.801L326.841 174H325.001L321.661 165.24H322.221L318.841 174H317.001ZM335.75 174V163.4H337.67V174H335.75ZM336.71 161.36C336.336 161.36 336.023 161.24 335.77 161C335.53 160.76 335.41 160.467 335.41 160.12C335.41 159.76 335.53 159.46 335.77 159.22C336.023 158.98 336.336 158.86 336.71 158.86C337.083 158.86 337.39 158.98 337.63 159.22C337.883 159.447 338.01 159.733 338.01 160.08C338.01 160.44 337.89 160.747 337.65 161C337.41 161.24 337.096 161.36 336.71 161.36ZM347.976 174.12C346.909 174.12 346.082 173.833 345.496 173.26C344.909 172.687 344.616 171.867 344.616 170.8V161.08H346.536V170.72C346.536 171.293 346.676 171.733 346.956 172.04C347.249 172.347 347.662 172.5 348.196 172.5C348.796 172.5 349.296 172.333 349.696 172L350.296 173.38C350.002 173.633 349.649 173.82 349.236 173.94C348.836 174.06 348.416 174.12 347.976 174.12ZM342.816 164.98V163.4H349.576V164.98H342.816ZM361.277 163.3C362.144 163.3 362.904 163.467 363.557 163.8C364.224 164.133 364.744 164.64 365.117 165.32C365.49 166 365.677 166.86 365.677 167.9V174H363.757V168.12C363.757 167.093 363.504 166.32 362.997 165.8C362.504 165.28 361.804 165.02 360.897 165.02C360.217 165.02 359.624 165.153 359.117 165.42C358.61 165.687 358.217 166.08 357.937 166.6C357.67 167.12 357.537 167.767 357.537 168.54V174H355.617V159.16H357.537V166.26L357.157 165.5C357.504 164.807 358.037 164.267 358.757 163.88C359.477 163.493 360.317 163.3 361.277 163.3ZM382.701 166.04H389.901V167.74H382.701V166.04ZM382.881 172.26H391.041V174H380.881V160H390.761V161.74H382.881V172.26ZM399.604 174L394.964 163.4H396.964L401.084 173H400.124L404.324 163.4H406.204L401.564 174H399.604ZM415.423 174.12C414.289 174.12 413.289 173.887 412.423 173.42C411.569 172.953 410.903 172.313 410.423 171.5C409.956 170.687 409.723 169.753 409.723 168.7C409.723 167.647 409.949 166.713 410.403 165.9C410.869 165.087 411.503 164.453 412.303 164C413.116 163.533 414.029 163.3 415.043 163.3C416.069 163.3 416.976 163.527 417.763 163.98C418.549 164.433 419.163 165.073 419.603 165.9C420.056 166.713 420.283 167.667 420.283 168.76C420.283 168.84 420.276 168.933 420.263 169.04C420.263 169.147 420.256 169.247 420.243 169.34H411.223V167.96H419.243L418.463 168.44C418.476 167.76 418.336 167.153 418.043 166.62C417.749 166.087 417.343 165.673 416.823 165.38C416.316 165.073 415.723 164.92 415.043 164.92C414.376 164.92 413.783 165.073 413.263 165.38C412.743 165.673 412.336 166.093 412.043 166.64C411.749 167.173 411.603 167.787 411.603 168.48V168.8C411.603 169.507 411.763 170.14 412.083 170.7C412.416 171.247 412.876 171.673 413.463 171.98C414.049 172.287 414.723 172.44 415.483 172.44C416.109 172.44 416.676 172.333 417.183 172.12C417.703 171.907 418.156 171.587 418.543 171.16L419.603 172.4C419.123 172.96 418.523 173.387 417.803 173.68C417.096 173.973 416.303 174.12 415.423 174.12ZM425.949 174V163.4H427.789V166.28L427.609 165.56C427.902 164.827 428.396 164.267 429.089 163.88C429.782 163.493 430.636 163.3 431.649 163.3V165.16C431.569 165.147 431.489 165.14 431.409 165.14C431.342 165.14 431.276 165.14 431.209 165.14C430.182 165.14 429.369 165.447 428.769 166.06C428.169 166.673 427.869 167.56 427.869 168.72V174H425.949ZM437.905 178C437.398 178 436.905 177.913 436.425 177.74C435.945 177.58 435.532 177.34 435.185 177.02L436.005 175.58C436.272 175.833 436.565 176.027 436.885 176.16C437.205 176.293 437.545 176.36 437.905 176.36C438.372 176.36 438.758 176.24 439.065 176C439.372 175.76 439.658 175.333 439.925 174.72L440.585 173.26L440.785 173.02L444.945 163.4H446.825L441.685 175.06C441.378 175.807 441.032 176.393 440.645 176.82C440.272 177.247 439.858 177.547 439.405 177.72C438.952 177.907 438.452 178 437.905 178ZM440.425 174.34L435.585 163.4H437.585L441.705 172.84L440.425 174.34ZM526.042 174.12C525.668 174.12 525.348 173.993 525.082 173.74C524.815 173.473 524.682 173.14 524.682 172.74C524.682 172.34 524.815 172.013 525.082 171.76C525.348 171.507 525.668 171.38 526.042 171.38C526.402 171.38 526.708 171.507 526.962 171.76C527.228 172.013 527.362 172.34 527.362 172.74C527.362 173.14 527.228 173.473 526.962 173.74C526.708 173.993 526.402 174.12 526.042 174.12Z" fill="black"/>
<path d="M457.988 174L464.228 160H467.428L473.688 174H470.288L465.168 161.64H466.448L461.308 174H457.988ZM461.108 171L461.968 168.54H469.168L470.048 171H461.108ZM484.46 163.08C485.314 163.08 486.074 163.253 486.74 163.6C487.42 163.933 487.954 164.453 488.34 165.16C488.727 165.853 488.92 166.747 488.92 167.84V174H485.8V168.32C485.8 167.453 485.607 166.813 485.22 166.4C484.847 165.987 484.314 165.78 483.62 165.78C483.127 165.78 482.68 165.887 482.28 166.1C481.894 166.3 481.587 166.613 481.36 167.04C481.147 167.467 481.04 168.013 481.04 168.68V174H477.92V163.24H480.9V166.22L480.34 165.32C480.727 164.6 481.28 164.047 482 163.66C482.72 163.273 483.54 163.08 484.46 163.08ZM498.369 174.16C497.449 174.16 496.562 174.053 495.709 173.84C494.869 173.613 494.202 173.333 493.709 173L494.749 170.76C495.242 171.067 495.822 171.32 496.489 171.52C497.169 171.707 497.835 171.8 498.489 171.8C499.209 171.8 499.715 171.713 500.009 171.54C500.315 171.367 500.469 171.127 500.469 170.82C500.469 170.567 500.349 170.38 500.109 170.26C499.882 170.127 499.575 170.027 499.189 169.96C498.802 169.893 498.375 169.827 497.909 169.76C497.455 169.693 496.995 169.607 496.529 169.5C496.062 169.38 495.635 169.207 495.249 168.98C494.862 168.753 494.549 168.447 494.309 168.06C494.082 167.673 493.969 167.173 493.969 166.56C493.969 165.88 494.162 165.28 494.549 164.76C494.949 164.24 495.522 163.833 496.269 163.54C497.015 163.233 497.909 163.08 498.949 163.08C499.682 163.08 500.429 163.16 501.189 163.32C501.949 163.48 502.582 163.713 503.089 164.02L502.049 166.24C501.529 165.933 501.002 165.727 500.469 165.62C499.949 165.5 499.442 165.44 498.949 165.44C498.255 165.44 497.749 165.533 497.429 165.72C497.109 165.907 496.949 166.147 496.949 166.44C496.949 166.707 497.062 166.907 497.289 167.04C497.529 167.173 497.842 167.28 498.229 167.36C498.615 167.44 499.035 167.513 499.489 167.58C499.955 167.633 500.422 167.72 500.889 167.84C501.355 167.96 501.775 168.133 502.149 168.36C502.535 168.573 502.849 168.873 503.089 169.26C503.329 169.633 503.449 170.127 503.449 170.74C503.449 171.407 503.249 172 502.849 172.52C502.449 173.027 501.869 173.427 501.109 173.72C500.362 174.013 499.449 174.16 498.369 174.16ZM514.914 163.08C515.767 163.08 516.527 163.253 517.194 163.6C517.874 163.933 518.407 164.453 518.794 165.16C519.18 165.853 519.374 166.747 519.374 167.84V174H516.254V168.32C516.254 167.453 516.06 166.813 515.674 166.4C515.3 165.987 514.767 165.78 514.074 165.78C513.58 165.78 513.134 165.887 512.734 166.1C512.347 166.3 512.04 166.613 511.814 167.04C511.6 167.467 511.494 168.013 511.494 168.68V174H508.374V159.16H511.494V166.22L510.794 165.32C511.18 164.6 511.734 164.047 512.454 163.66C513.174 163.273 513.994 163.08 514.914 163.08Z" fill="url(#paint12_linear_228_77)"/>
<defs>
<linearGradient id="paint0_linear_228_77" x1="9.4705" y1="76.1219" x2="11.9249" y2="116.188" gradientUnits="userSpaceOnUse">
<stop stop-color="#EE4E94"/>
<stop offset="1" stop-color="#924CE8"/>
</linearGradient>
<linearGradient id="paint1_linear_228_77" x1="3.03183" y1="7.02101" x2="21.6121" y2="115.905" gradientUnits="userSpaceOnUse">
<stop stop-color="#EE4E94"/>
<stop offset="1" stop-color="#924CE8"/>
</linearGradient>
<linearGradient id="paint2_linear_228_77" x1="3.03206" y1="7.02032" x2="21.6075" y2="115.894" gradientUnits="userSpaceOnUse">
<stop stop-color="#EE4E94"/>
<stop offset="1" stop-color="#924CE8"/>
</linearGradient>
<linearGradient id="paint3_linear_228_77" x1="3.0367" y1="7.12599" x2="22.1317" y2="117.554" gradientUnits="userSpaceOnUse">
<stop stop-color="#EE4E94"/>
<stop offset="1" stop-color="#924CE8"/>
</linearGradient>
<linearGradient id="paint4_linear_228_77" x1="117.849" y1="74.9902" x2="26.6947" y2="135.475" gradientUnits="userSpaceOnUse">
<stop stop-color="#EE4E94"/>
<stop offset="1" stop-color="#924CE8"/>
</linearGradient>
<linearGradient id="paint5_linear_228_77" x1="565.351" y1="10.5183" x2="577.969" y2="62.4113" gradientUnits="userSpaceOnUse">
<stop stop-color="#EE4E94"/>
<stop offset="1" stop-color="#924CE8"/>
</linearGradient>
<linearGradient id="paint6_linear_228_77" x1="499.72" y1="9.71301" x2="514.218" y2="61.9032" gradientUnits="userSpaceOnUse">
<stop stop-color="#EE4E94"/>
<stop offset="1" stop-color="#924CE8"/>
</linearGradient>
<linearGradient id="paint7_linear_228_77" x1="357.689" y1="10.713" x2="368.562" y2="64.7422" gradientUnits="userSpaceOnUse">
<stop stop-color="#EE4E94"/>
<stop offset="1" stop-color="#924CE8"/>
</linearGradient>
<linearGradient id="paint8_linear_228_77" x1="213.282" y1="10.7465" x2="226.503" y2="63.8908" gradientUnits="userSpaceOnUse">
<stop stop-color="#EE4E94"/>
<stop offset="1" stop-color="#924CE8"/>
</linearGradient>
<linearGradient id="paint9_linear_228_77" x1="282.282" y1="10.7465" x2="295.503" y2="63.8908" gradientUnits="userSpaceOnUse">
<stop stop-color="#EE4E94"/>
<stop offset="1" stop-color="#924CE8"/>
</linearGradient>
<linearGradient id="paint10_linear_228_77" x1="433.706" y1="8.74648" x2="446.927" y2="61.8908" gradientUnits="userSpaceOnUse">
<stop stop-color="#EE4E94"/>
<stop offset="1" stop-color="#924CE8"/>
</linearGradient>
<linearGradient id="paint11_linear_228_77" x1="169.582" y1="11.3181" x2="195.182" y2="28.8068" gradientUnits="userSpaceOnUse">
<stop stop-color="#EE4E94"/>
<stop offset="1" stop-color="#924CE8"/>
</linearGradient>
<linearGradient id="paint12_linear_228_77" x1="303.224" y1="155" x2="303.183" y2="174.2" gradientUnits="userSpaceOnUse">
<stop stop-color="#EE4E94"/>
<stop offset="1" stop-color="#924CE8"/>
</linearGradient>
</defs>
</svg>
