<svg width="644" height="193" viewBox="0 0 644 193" fill="none" xmlns="http://www.w3.org/2000/svg">
<rect x="6.43945" y="73.6021" width="6.43901" height="43.2572" fill="url(#paint0_linear_228_77)"/>
<rect width="6.44068" height="120.527" transform="matrix(0.95038 0.311092 -0.438296 0.898831 62.6621 7.07373)" fill="url(#paint1_linear_228_77)"/>
<rect width="6.44116" height="120.515" transform="matrix(-0.93552 0.353274 0.477903 0.878413 67.8398 12.9126)" fill="url(#paint2_linear_228_77)"/>
<rect opacity="0.34" width="6.45101" height="122.329" transform="matrix(0.552513 -0.833504 0.868775 0.495206 10.3027 15.061)" fill="url(#paint3_linear_228_77)"/>
<path opacity="0.35" d="M123.189 69.7275L125.814 75.6233L14.809 124.606L12.2334 119.118L123.189 69.7275Z" fill="url(#paint4_linear_228_77)"/>
<ellipse cx="64.3909" cy="9.68445" rx="9.65852" ry="9.68445" fill="#EE4E94"/>
<ellipse cx="9.65852" cy="73.6019" rx="9.65852" ry="9.68445" fill="#D642BC"/>
<ellipse cx="9.65852" cy="123.315" rx="9.65852" ry="9.68445" fill="#924CE8"/>
<ellipse cx="122.342" cy="73.6019" rx="9.65852" ry="9.68445" fill="#D642BC"/>
<ellipse cx="9.65852" cy="9.68445" rx="9.65852" ry="9.68445" fill="#EE4E94"/>
<ellipse cx="122.342" cy="123.315" rx="9.65852" ry="9.68445" fill="#924CE8"/>
<path d="M201.773 90.2183L202.125 97.6714H201.234C201.062 96.3589 200.828 95.4214 200.531 94.8589C200.047 93.9526 199.398 93.2886 198.586 92.8667C197.789 92.4292 196.734 92.2104 195.422 92.2104H190.945V116.492C190.945 118.445 191.156 119.664 191.578 120.148C192.172 120.804 193.086 121.132 194.32 121.132H195.422V122H181.945V121.132H183.07C184.414 121.132 185.367 120.726 185.93 119.914C186.273 119.414 186.445 118.273 186.445 116.492V92.2104H182.625C181.141 92.2104 180.086 92.3198 179.461 92.5386C178.648 92.8354 177.953 93.4058 177.375 94.2495C176.797 95.0933 176.453 96.2339 176.344 97.6714H175.453L175.828 90.2183H201.773ZM220.575 91.9526V104.515H227.559C229.372 104.515 230.583 104.242 231.192 103.695C232.005 102.976 232.458 101.71 232.552 99.8979H233.419V110.96H232.552C232.333 109.414 232.114 108.421 231.895 107.984C231.614 107.437 231.153 107.007 230.513 106.695C229.872 106.382 228.888 106.226 227.559 106.226H220.575V116.703C220.575 118.109 220.638 118.968 220.763 119.281C220.888 119.578 221.106 119.82 221.419 120.007C221.731 120.179 222.325 120.265 223.2 120.265H228.591C230.388 120.265 231.692 120.14 232.505 119.89C233.317 119.64 234.098 119.148 234.848 118.414C235.817 117.445 236.809 115.984 237.825 114.031H238.763L236.02 122H211.528V121.132H212.653C213.403 121.132 214.114 120.953 214.786 120.593C215.286 120.343 215.622 119.968 215.794 119.468C215.981 118.968 216.075 117.945 216.075 116.398V95.7495C216.075 93.7339 215.872 92.4917 215.466 92.0229C214.903 91.3979 213.966 91.0854 212.653 91.0854H211.528V90.2183H236.02L236.372 97.1792H235.458C235.13 95.5073 234.763 94.3589 234.356 93.7339C233.966 93.1089 233.38 92.6323 232.598 92.3042C231.973 92.0698 230.872 91.9526 229.294 91.9526H220.575ZM275.986 89.4917L276.713 100.296H275.986C275.017 97.062 273.634 94.7339 271.838 93.312C270.041 91.8901 267.884 91.1792 265.369 91.1792C263.259 91.1792 261.353 91.7183 259.65 92.7964C257.947 93.8589 256.603 95.562 255.619 97.9058C254.65 100.25 254.166 103.164 254.166 106.648C254.166 109.523 254.627 112.015 255.548 114.125C256.47 116.234 257.853 117.851 259.697 118.976C261.556 120.101 263.673 120.664 266.048 120.664C268.111 120.664 269.931 120.226 271.509 119.351C273.088 118.46 274.822 116.703 276.713 114.078L277.439 114.546C275.845 117.375 273.986 119.445 271.861 120.757C269.736 122.07 267.213 122.726 264.291 122.726C259.025 122.726 254.947 120.773 252.056 116.867C249.9 113.96 248.822 110.539 248.822 106.601C248.822 103.429 249.533 100.515 250.955 97.8589C252.377 95.2026 254.33 93.1479 256.814 91.6948C259.314 90.2261 262.041 89.4917 264.994 89.4917C267.291 89.4917 269.556 90.0542 271.791 91.1792C272.447 91.5229 272.916 91.6948 273.197 91.6948C273.619 91.6948 273.986 91.5464 274.298 91.2495C274.705 90.8276 274.994 90.2417 275.166 89.4917H275.986ZM296.17 104.96H310.936V95.8667C310.936 94.2417 310.834 93.1714 310.631 92.6558C310.475 92.2651 310.147 91.9292 309.647 91.6479C308.975 91.2729 308.264 91.0854 307.514 91.0854H306.389V90.2183H319.983V91.0854H318.858C318.108 91.0854 317.397 91.2651 316.725 91.6245C316.225 91.8745 315.881 92.2573 315.694 92.7729C315.522 93.2729 315.436 94.3042 315.436 95.8667V116.375C315.436 117.984 315.537 119.046 315.741 119.562C315.897 119.953 316.217 120.289 316.702 120.57C317.389 120.945 318.108 121.132 318.858 121.132H319.983V122H306.389V121.132H307.514C308.811 121.132 309.756 120.75 310.35 119.984C310.741 119.484 310.936 118.281 310.936 116.375V106.695H296.17V116.375C296.17 117.984 296.272 119.046 296.475 119.562C296.631 119.953 296.959 120.289 297.459 120.57C298.131 120.945 298.842 121.132 299.592 121.132H300.741V122H287.123V121.132H288.248C289.561 121.132 290.514 120.75 291.108 119.984C291.483 119.484 291.67 118.281 291.67 116.375V95.8667C291.67 94.2417 291.569 93.1714 291.366 92.6558C291.209 92.2651 290.889 91.9292 290.405 91.6479C289.717 91.2729 288.998 91.0854 288.248 91.0854H287.123V90.2183H300.741V91.0854H299.592C298.842 91.0854 298.131 91.2651 297.459 91.6245C296.975 91.8745 296.639 92.2573 296.452 92.7729C296.264 93.2729 296.17 94.3042 296.17 95.8667V104.96ZM327.558 90.2183H336.183L355.613 114.054V95.7261C355.613 93.7729 355.394 92.5542 354.956 92.0698C354.378 91.4136 353.464 91.0854 352.214 91.0854H351.113V90.2183H362.175V91.0854H361.05C359.706 91.0854 358.753 91.4917 358.191 92.3042C357.847 92.8042 357.675 93.9448 357.675 95.7261V122.515H356.831L335.878 96.9214V116.492C335.878 118.445 336.089 119.664 336.511 120.148C337.105 120.804 338.019 121.132 339.253 121.132H340.378V122H329.316V121.132H330.417C331.777 121.132 332.738 120.726 333.3 119.914C333.644 119.414 333.816 118.273 333.816 116.492V94.3901C332.894 93.312 332.191 92.6011 331.706 92.2573C331.238 91.9136 330.542 91.5933 329.62 91.2964C329.167 91.1558 328.48 91.0854 327.558 91.0854V90.2183ZM387.633 89.4917C391.758 89.4917 395.328 91.062 398.344 94.2026C401.375 97.3276 402.891 101.234 402.891 105.921C402.891 110.75 401.367 114.757 398.32 117.945C395.273 121.132 391.586 122.726 387.258 122.726C382.883 122.726 379.203 121.171 376.219 118.062C373.25 114.953 371.766 110.929 371.766 105.992C371.766 100.945 373.484 96.8276 376.922 93.6401C379.906 90.8745 383.477 89.4917 387.633 89.4917ZM387.188 91.2026C384.344 91.2026 382.062 92.2573 380.344 94.3667C378.203 96.9917 377.133 100.835 377.133 105.898C377.133 111.085 378.242 115.078 380.461 117.875C382.164 120 384.414 121.062 387.211 121.062C390.195 121.062 392.656 119.898 394.594 117.57C396.547 115.242 397.523 111.57 397.523 106.554C397.523 101.117 396.453 97.062 394.312 94.3901C392.594 92.2651 390.219 91.2026 387.188 91.2026ZM439.481 113.21L440.255 113.375L437.536 122H412.927V121.132H414.122C415.466 121.132 416.427 120.695 417.005 119.82C417.333 119.32 417.497 118.164 417.497 116.351V95.8433C417.497 93.8589 417.278 92.6167 416.841 92.1167C416.231 91.4292 415.325 91.0854 414.122 91.0854H412.927V90.2183H427.317V91.0854C425.63 91.0698 424.442 91.2261 423.755 91.5542C423.083 91.8823 422.622 92.2964 422.372 92.7964C422.122 93.2964 421.997 94.4917 421.997 96.3823V116.351C421.997 117.648 422.122 118.539 422.372 119.023C422.559 119.351 422.848 119.593 423.239 119.75C423.63 119.906 424.848 119.984 426.895 119.984H429.216C431.653 119.984 433.364 119.804 434.348 119.445C435.333 119.085 436.231 118.453 437.044 117.546C437.856 116.625 438.669 115.179 439.481 113.21ZM466.064 89.4917C470.189 89.4917 473.759 91.062 476.775 94.2026C479.806 97.3276 481.322 101.234 481.322 105.921C481.322 110.75 479.798 114.757 476.752 117.945C473.705 121.132 470.017 122.726 465.689 122.726C461.314 122.726 457.634 121.171 454.65 118.062C451.681 114.953 450.197 110.929 450.197 105.992C450.197 100.945 451.916 96.8276 455.353 93.6401C458.337 90.8745 461.908 89.4917 466.064 89.4917ZM465.619 91.2026C462.775 91.2026 460.494 92.2573 458.775 94.3667C456.634 96.9917 455.564 100.835 455.564 105.898C455.564 111.085 456.673 115.078 458.892 117.875C460.595 120 462.845 121.062 465.642 121.062C468.627 121.062 471.087 119.898 473.025 117.57C474.978 115.242 475.955 111.57 475.955 106.554C475.955 101.117 474.884 97.062 472.744 94.3901C471.025 92.2651 468.65 91.2026 465.619 91.2026ZM519.858 89.4917L520.678 99.5229H519.858C519.03 97.0229 517.959 95.1401 516.647 93.8745C514.756 92.0464 512.327 91.1323 509.358 91.1323C505.311 91.1323 502.233 92.7339 500.123 95.937C498.358 98.6401 497.475 101.859 497.475 105.593C497.475 108.625 498.061 111.39 499.233 113.89C500.405 116.39 501.936 118.226 503.827 119.398C505.733 120.554 507.686 121.132 509.686 121.132C510.858 121.132 511.991 120.984 513.084 120.687C514.178 120.39 515.233 119.953 516.248 119.375V110.187C516.248 108.593 516.123 107.554 515.873 107.07C515.639 106.57 515.264 106.195 514.748 105.945C514.248 105.679 513.358 105.546 512.077 105.546V104.656H524.381V105.546H523.795C522.577 105.546 521.741 105.953 521.288 106.765C520.975 107.343 520.819 108.484 520.819 110.187V119.914C519.022 120.882 517.248 121.593 515.498 122.046C513.748 122.5 511.803 122.726 509.663 122.726C503.522 122.726 498.858 120.757 495.67 116.82C493.28 113.867 492.084 110.46 492.084 106.601C492.084 103.804 492.756 101.125 494.1 98.562C495.694 95.5151 497.881 93.1714 500.663 91.5308C502.991 90.1714 505.741 89.4917 508.913 89.4917C510.069 89.4917 511.116 89.5854 512.053 89.7729C513.006 89.9604 514.35 90.3745 516.084 91.0151C516.959 91.3433 517.545 91.5073 517.842 91.5073C518.139 91.5073 518.389 91.3745 518.592 91.1089C518.811 90.8276 518.944 90.2886 518.991 89.4917H519.858ZM547.097 121.132V122H533.48V121.132H534.605C535.917 121.132 536.87 120.75 537.464 119.984C537.839 119.484 538.027 118.281 538.027 116.375V95.8433C538.027 94.2339 537.925 93.1714 537.722 92.6558C537.566 92.2651 537.245 91.9292 536.761 91.6479C536.073 91.2729 535.355 91.0854 534.605 91.0854H533.48V90.2183H547.097V91.0854H545.948C544.652 91.0854 543.706 91.4683 543.112 92.2339C542.722 92.7339 542.527 93.937 542.527 95.8433V116.375C542.527 117.984 542.628 119.046 542.831 119.562C542.987 119.953 543.316 120.289 543.816 120.57C544.487 120.945 545.198 121.132 545.948 121.132H547.097ZM565.5 91.9526V104.515H572.484C574.297 104.515 575.508 104.242 576.117 103.695C576.93 102.976 577.383 101.71 577.477 99.8979H578.344V110.96H577.477C577.258 109.414 577.039 108.421 576.82 107.984C576.539 107.437 576.078 107.007 575.438 106.695C574.797 106.382 573.812 106.226 572.484 106.226H565.5V116.703C565.5 118.109 565.562 118.968 565.688 119.281C565.812 119.578 566.031 119.82 566.344 120.007C566.656 120.179 567.25 120.265 568.125 120.265H573.516C575.312 120.265 576.617 120.14 577.43 119.89C578.242 119.64 579.023 119.148 579.773 118.414C580.742 117.445 581.734 115.984 582.75 114.031H583.688L580.945 122H556.453V121.132H557.578C558.328 121.132 559.039 120.953 559.711 120.593C560.211 120.343 560.547 119.968 560.719 119.468C560.906 118.968 561 117.945 561 116.398V95.7495C561 93.7339 560.797 92.4917 560.391 92.0229C559.828 91.3979 558.891 91.0854 557.578 91.0854H556.453V90.2183H580.945L581.297 97.1792H580.383C580.055 95.5073 579.688 94.3589 579.281 93.7339C578.891 93.1089 578.305 92.6323 577.523 92.3042C576.898 92.0698 575.797 91.9526 574.219 91.9526H565.5ZM614.02 89.4917V100.484H613.153C612.872 98.3745 612.364 96.6948 611.63 95.4448C610.911 94.1948 609.88 93.2026 608.536 92.4683C607.192 91.7339 605.802 91.3667 604.364 91.3667C602.739 91.3667 601.395 91.8667 600.333 92.8667C599.27 93.8511 598.739 94.9761 598.739 96.2417C598.739 97.2104 599.075 98.0933 599.747 98.8901C600.716 100.062 603.02 101.625 606.661 103.578C609.63 105.171 611.653 106.398 612.731 107.257C613.825 108.101 614.661 109.101 615.239 110.257C615.833 111.414 616.13 112.625 616.13 113.89C616.13 116.296 615.192 118.375 613.317 120.125C611.458 121.859 609.059 122.726 606.122 122.726C605.2 122.726 604.333 122.656 603.52 122.515C603.036 122.437 602.028 122.156 600.497 121.671C598.981 121.171 598.02 120.921 597.614 120.921C597.223 120.921 596.911 121.039 596.677 121.273C596.458 121.507 596.294 121.992 596.184 122.726H595.317V111.828H596.184C596.591 114.109 597.138 115.82 597.825 116.96C598.513 118.085 599.559 119.023 600.966 119.773C602.388 120.523 603.942 120.898 605.63 120.898C607.583 120.898 609.122 120.382 610.247 119.351C611.388 118.32 611.958 117.101 611.958 115.695C611.958 114.914 611.739 114.125 611.302 113.328C610.88 112.531 610.216 111.789 609.309 111.101C608.7 110.632 607.036 109.64 604.317 108.125C601.598 106.593 599.661 105.375 598.505 104.468C597.364 103.562 596.497 102.562 595.903 101.468C595.309 100.375 595.013 99.1714 595.013 97.8589C595.013 95.5776 595.888 93.6167 597.638 91.9761C599.388 90.3198 601.614 89.4917 604.317 89.4917C606.005 89.4917 607.794 89.9058 609.684 90.7339C610.559 91.1245 611.177 91.3198 611.536 91.3198C611.942 91.3198 612.27 91.2026 612.52 90.9683C612.786 90.7183 612.997 90.2261 613.153 89.4917H614.02Z" fill="#4F4F4F"/>
<path d="M607.96 2H617.56V69.2H607.96V2ZM569.368 69.2H559.768V2H569.368V69.2ZM608.824 39.248H568.408V30.896H608.824V39.248Z" fill="url(#paint5_linear_228_77)"/>
<path d="M522.751 69.736C517.631 69.736 512.735 68.968 508.063 67.432C503.391 65.832 499.711 63.784 497.023 61.288L500.575 53.8C503.135 56.04 506.399 57.896 510.367 59.368C514.335 60.84 518.463 61.576 522.751 61.576C526.655 61.576 529.823 61.128 532.255 60.232C534.687 59.336 536.479 58.12 537.631 56.584C538.783 54.984 539.359 53.192 539.359 51.208C539.359 48.904 538.591 47.048 537.055 45.64C535.583 44.232 533.631 43.112 531.199 42.28C528.831 41.384 526.207 40.616 523.327 39.976C520.447 39.336 517.535 38.6 514.591 37.768C511.711 36.872 509.055 35.752 506.623 34.408C504.255 33.064 502.335 31.272 500.863 29.032C499.391 26.728 498.655 23.784 498.655 20.2C498.655 16.744 499.551 13.576 501.343 10.696C503.199 7.752 506.015 5.416 509.791 3.688C513.631 1.896 518.495 1 524.383 1C528.287 1 532.159 1.512 535.999 2.536C539.839 3.56 543.167 5.032 545.983 6.952L542.815 14.632C539.935 12.712 536.895 11.336 533.695 10.504C530.495 9.608 527.391 9.16 524.383 9.16C520.607 9.16 517.503 9.64 515.071 10.6C512.639 11.56 510.847 12.84 509.695 14.44C508.607 16.04 508.063 17.832 508.063 19.816C508.063 22.184 508.799 24.072 510.271 25.48C511.807 26.888 513.759 28.008 516.127 28.84C518.559 29.672 521.215 30.44 524.095 31.144C526.975 31.784 529.855 32.52 532.735 33.352C535.679 34.184 538.335 35.272 540.703 36.616C543.135 37.96 545.087 39.752 546.559 41.992C548.031 44.232 548.767 47.112 548.767 50.632C548.767 54.024 547.839 57.192 545.983 60.136C544.127 63.016 541.247 65.352 537.343 67.144C533.503 68.872 528.639 69.736 522.751 69.736Z" fill="url(#paint6_linear_228_77)"/>
<path d="M381.408 70.736C376.288 70.736 371.52 69.872 367.104 68.144C362.752 66.416 358.976 64.016 355.776 60.944C352.576 57.808 350.08 54.16 348.288 50C346.496 45.84 345.6 41.296 345.6 36.368C345.6 31.44 346.496 26.896 348.288 22.736C350.08 18.576 352.576 14.96 355.776 11.888C358.976 8.752 362.752 6.32 367.104 4.592C371.456 2.864 376.224 2 381.408 2C386.528 2 391.232 2.864 395.52 4.592C399.872 6.256 403.648 8.656 406.848 11.792C410.112 14.864 412.608 18.48 414.336 22.64C416.128 26.8 417.024 31.376 417.024 36.368C417.024 41.36 416.128 45.936 414.336 50.096C412.608 54.256 410.112 57.904 406.848 61.04C403.648 64.112 399.872 66.512 395.52 68.24C391.232 69.904 386.528 70.736 381.408 70.736ZM381.408 62.192C385.12 62.192 388.544 61.552 391.68 60.272C394.88 58.992 397.632 57.2 399.936 54.896C402.304 52.528 404.128 49.776 405.408 46.64C406.752 43.504 407.424 40.08 407.424 36.368C407.424 32.656 406.752 29.232 405.408 26.096C404.128 22.96 402.304 20.24 399.936 17.936C397.632 15.568 394.88 13.744 391.68 12.464C388.544 11.184 385.12 10.544 381.408 10.544C377.632 10.544 374.144 11.184 370.944 12.464C367.808 13.744 365.056 15.568 362.688 17.936C360.32 20.24 358.464 22.96 357.12 26.096C355.84 29.232 355.2 32.656 355.2 36.368C355.2 40.08 355.84 43.504 357.12 46.64C358.464 49.776 360.32 52.528 362.688 54.896C365.056 57.2 367.808 58.992 370.944 60.272C374.144 61.552 377.632 62.192 381.408 62.192Z" fill="url(#paint7_linear_228_77)"/>
<path d="M207.6 70V21.5V2L258.1 51L255.965 57.0357V2H265.6L265.1 71L238.6 45L207.6 15V2V21.5L217.234 31V70H207.6Z" fill="url(#paint8_linear_228_77)"/>
<path d="M276.6 70V21.5V2L327.1 51L324.965 57.0357V2H334.6L334.1 71L307.6 45L276.6 15V2V21.5L286.234 31V70H276.6Z" fill="url(#paint9_linear_228_77)"/>
<path d="M428.023 68V19.5V0L478.523 49L476.389 55.0357V0H486.023L485.523 69L459.023 43L428.023 13V0V19.5L437.658 29V68H428.023Z" fill="url(#paint10_linear_228_77)"/>
<path d="M187 69.9998V2.7998H196.6V69.9998H187Z" fill="url(#paint11_linear_228_77)"/>
<path d="M3.36 185V162.6H6.56V185H3.36ZM23.7943 167.88C25.1809 167.88 26.3969 168.147 27.4423 168.68C28.5089 169.213 29.3409 170.024 29.9383 171.112C30.5356 172.2 30.8343 173.576 30.8343 175.24V185H27.7623V175.592C27.7623 173.949 27.3569 172.712 26.5463 171.88C25.7569 171.048 24.6369 170.632 23.1863 170.632C22.0983 170.632 21.1489 170.845 20.3383 171.272C19.5276 171.699 18.8983 172.328 18.4503 173.16C18.0236 173.992 17.8103 175.027 17.8103 176.264V185H14.7383V168.04H17.6823V172.616L17.2023 171.4C17.7569 170.291 18.6103 169.427 19.7623 168.808C20.9143 168.189 22.2583 167.88 23.7943 167.88ZM47.4955 167.88C48.8822 167.88 50.0982 168.147 51.1435 168.68C52.2102 169.213 53.0422 170.024 53.6395 171.112C54.2368 172.2 54.5355 173.576 54.5355 175.24V185H51.4635V175.592C51.4635 173.949 51.0582 172.712 50.2475 171.88C49.4582 171.048 48.3382 170.632 46.8875 170.632C45.7995 170.632 44.8502 170.845 44.0395 171.272C43.2288 171.699 42.5995 172.328 42.1515 173.16C41.7248 173.992 41.5115 175.027 41.5115 176.264V185H38.4395V168.04H41.3835V172.616L40.9035 171.4C41.4582 170.291 42.3115 169.427 43.4635 168.808C44.6155 168.189 45.9595 167.88 47.4955 167.88ZM69.4047 185.192C67.6981 185.192 66.1834 184.819 64.8607 184.072C63.5381 183.325 62.4927 182.301 61.7247 181C60.9567 179.677 60.5727 178.184 60.5727 176.52C60.5727 174.835 60.9567 173.341 61.7247 172.04C62.4927 170.739 63.5381 169.725 64.8607 169C66.1834 168.253 67.6981 167.88 69.4047 167.88C71.0901 167.88 72.5941 168.253 73.9167 169C75.2607 169.725 76.3061 170.739 77.0527 172.04C77.8207 173.32 78.2048 174.813 78.2048 176.52C78.2048 178.205 77.8207 179.699 77.0527 181C76.3061 182.301 75.2607 183.325 73.9167 184.072C72.5941 184.819 71.0901 185.192 69.4047 185.192ZM69.4047 182.504C70.4927 182.504 71.4634 182.259 72.3167 181.768C73.1914 181.277 73.8741 180.584 74.3647 179.688C74.8554 178.771 75.1007 177.715 75.1007 176.52C75.1007 175.304 74.8554 174.259 74.3647 173.384C73.8741 172.488 73.1914 171.795 72.3167 171.304C71.4634 170.813 70.4927 170.568 69.4047 170.568C68.3167 170.568 67.3461 170.813 66.4927 171.304C65.6394 171.795 64.9567 172.488 64.4447 173.384C63.9327 174.259 63.6767 175.304 63.6767 176.52C63.6767 177.715 63.9327 178.771 64.4447 179.688C64.9567 180.584 65.6394 181.277 66.4927 181.768C67.3461 182.259 68.3167 182.504 69.4047 182.504ZM88.3525 185L80.9285 168.04H84.1285L90.7205 183.4H89.1845L95.9045 168.04H98.9125L91.4885 185H88.3525ZM113.696 185V181.416L113.536 180.744V174.632C113.536 173.331 113.152 172.328 112.384 171.624C111.638 170.899 110.507 170.536 108.992 170.536C107.99 170.536 107.008 170.707 106.048 171.048C105.088 171.368 104.278 171.805 103.616 172.36L102.336 170.056C103.211 169.352 104.256 168.819 105.472 168.456C106.71 168.072 108 167.88 109.344 167.88C111.67 167.88 113.462 168.445 114.72 169.576C115.979 170.707 116.608 172.435 116.608 174.76V185H113.696ZM108.128 185.192C106.87 185.192 105.76 184.979 104.8 184.552C103.862 184.125 103.136 183.539 102.624 182.792C102.112 182.024 101.856 181.16 101.856 180.2C101.856 179.283 102.07 178.451 102.496 177.704C102.944 176.957 103.659 176.36 104.64 175.912C105.643 175.464 106.987 175.24 108.672 175.24H114.048V177.448H108.8C107.264 177.448 106.23 177.704 105.696 178.216C105.163 178.728 104.896 179.347 104.896 180.072C104.896 180.904 105.227 181.576 105.888 182.088C106.55 182.579 107.467 182.824 108.64 182.824C109.792 182.824 110.795 182.568 111.648 182.056C112.523 181.544 113.152 180.797 113.536 179.816L114.144 181.928C113.739 182.931 113.024 183.731 112 184.328C110.976 184.904 109.686 185.192 108.128 185.192ZM130.037 185.192C128.331 185.192 127.008 184.733 126.069 183.816C125.131 182.899 124.661 181.587 124.661 179.88V164.328H127.733V179.752C127.733 180.669 127.957 181.373 128.405 181.864C128.875 182.355 129.536 182.6 130.389 182.6C131.349 182.6 132.149 182.333 132.789 181.8L133.749 184.008C133.28 184.413 132.715 184.712 132.053 184.904C131.413 185.096 130.741 185.192 130.037 185.192ZM121.781 170.568V168.04H132.597V170.568H121.781ZM139.383 185V168.04H142.455V185H139.383ZM140.919 164.776C140.322 164.776 139.821 164.584 139.415 164.2C139.031 163.816 138.839 163.347 138.839 162.792C138.839 162.216 139.031 161.736 139.415 161.352C139.821 160.968 140.322 160.776 140.919 160.776C141.517 160.776 142.007 160.968 142.391 161.352C142.797 161.715 142.999 162.173 142.999 162.728C142.999 163.304 142.807 163.795 142.423 164.2C142.039 164.584 141.538 164.776 140.919 164.776ZM157.505 185.192C155.798 185.192 154.283 184.819 152.961 184.072C151.638 183.325 150.593 182.301 149.825 181C149.057 179.677 148.673 178.184 148.673 176.52C148.673 174.835 149.057 173.341 149.825 172.04C150.593 170.739 151.638 169.725 152.961 169C154.283 168.253 155.798 167.88 157.505 167.88C159.19 167.88 160.694 168.253 162.017 169C163.361 169.725 164.406 170.739 165.153 172.04C165.921 173.32 166.305 174.813 166.305 176.52C166.305 178.205 165.921 179.699 165.153 181C164.406 182.301 163.361 183.325 162.017 184.072C160.694 184.819 159.19 185.192 157.505 185.192ZM157.505 182.504C158.593 182.504 159.563 182.259 160.417 181.768C161.291 181.277 161.974 180.584 162.465 179.688C162.955 178.771 163.201 177.715 163.201 176.52C163.201 175.304 162.955 174.259 162.465 173.384C161.974 172.488 161.291 171.795 160.417 171.304C159.563 170.813 158.593 170.568 157.505 170.568C156.417 170.568 155.446 170.813 154.593 171.304C153.739 171.795 153.057 172.488 152.545 173.384C152.033 174.259 151.777 175.304 151.777 176.52C151.777 177.715 152.033 178.771 152.545 179.688C153.057 180.584 153.739 181.277 154.593 181.768C155.446 182.259 156.417 182.504 157.505 182.504ZM181.529 167.88C182.916 167.88 184.132 168.147 185.177 168.68C186.244 169.213 187.076 170.024 187.673 171.112C188.271 172.2 188.569 173.576 188.569 175.24V185H185.497V175.592C185.497 173.949 185.092 172.712 184.281 171.88C183.492 171.048 182.372 170.632 180.921 170.632C179.833 170.632 178.884 170.845 178.073 171.272C177.263 171.699 176.633 172.328 176.185 173.16C175.759 173.992 175.545 175.027 175.545 176.264V185H172.473V168.04H175.417V172.616L174.937 171.4C175.492 170.291 176.345 169.427 177.497 168.808C178.649 168.189 179.993 167.88 181.529 167.88ZM207.136 185V162.6H217.184C219.766 162.6 221.75 163.123 223.136 164.168C224.523 165.192 225.216 166.6 225.216 168.392C225.216 169.608 224.939 170.632 224.384 171.464C223.851 172.296 223.126 172.936 222.208 173.384C221.291 173.832 220.299 174.056 219.232 174.056L219.808 173.096C221.088 173.096 222.219 173.32 223.2 173.768C224.182 174.216 224.96 174.877 225.536 175.752C226.112 176.605 226.4 177.672 226.4 178.952C226.4 180.872 225.675 182.365 224.224 183.432C222.795 184.477 220.662 185 217.824 185H207.136ZM210.336 182.408H217.696C219.467 182.408 220.822 182.109 221.76 181.512C222.699 180.915 223.168 179.976 223.168 178.696C223.168 177.395 222.699 176.445 221.76 175.848C220.822 175.251 219.467 174.952 217.696 174.952H210.048V172.36H216.896C218.518 172.36 219.776 172.061 220.672 171.464C221.568 170.867 222.016 169.971 222.016 168.776C222.016 167.581 221.568 166.685 220.672 166.088C219.776 165.491 218.518 165.192 216.896 165.192H210.336V182.408ZM240.379 185.192C238.566 185.192 236.966 184.819 235.579 184.072C234.214 183.325 233.147 182.301 232.379 181C231.632 179.699 231.259 178.205 231.259 176.52C231.259 174.835 231.622 173.341 232.347 172.04C233.094 170.739 234.107 169.725 235.387 169C236.688 168.253 238.15 167.88 239.771 167.88C241.414 167.88 242.864 168.243 244.123 168.968C245.382 169.693 246.363 170.717 247.067 172.04C247.792 173.341 248.155 174.867 248.155 176.616C248.155 176.744 248.144 176.893 248.123 177.064C248.123 177.235 248.112 177.395 248.091 177.544H233.659V175.336H246.491L245.243 176.104C245.264 175.016 245.04 174.045 244.571 173.192C244.102 172.339 243.451 171.677 242.619 171.208C241.808 170.717 240.859 170.472 239.771 170.472C238.704 170.472 237.755 170.717 236.923 171.208C236.091 171.677 235.44 172.349 234.971 173.224C234.502 174.077 234.267 175.059 234.267 176.168V176.68C234.267 177.811 234.523 178.824 235.035 179.72C235.568 180.595 236.304 181.277 237.243 181.768C238.182 182.259 239.259 182.504 240.475 182.504C241.478 182.504 242.384 182.333 243.195 181.992C244.027 181.651 244.752 181.139 245.371 180.456L247.067 182.44C246.299 183.336 245.339 184.019 244.187 184.488C243.056 184.957 241.787 185.192 240.379 185.192ZM261.765 191.4C260.207 191.4 258.693 191.176 257.221 190.728C255.77 190.301 254.586 189.683 253.669 188.872L255.141 186.504C255.93 187.187 256.901 187.72 258.053 188.104C259.205 188.509 260.41 188.712 261.669 188.712C263.674 188.712 265.146 188.243 266.085 187.304C267.023 186.365 267.493 184.936 267.493 183.016V179.432L267.813 176.072L267.653 172.68V168.04H270.565V182.696C270.565 185.683 269.818 187.88 268.325 189.288C266.831 190.696 264.645 191.4 261.765 191.4ZM261.381 184.296C259.738 184.296 258.266 183.955 256.965 183.272C255.685 182.568 254.661 181.597 253.893 180.36C253.146 179.123 252.773 177.693 252.773 176.072C252.773 174.429 253.146 173 253.893 171.784C254.661 170.547 255.685 169.587 256.965 168.904C258.266 168.221 259.738 167.88 261.381 167.88C262.831 167.88 264.154 168.179 265.349 168.776C266.543 169.352 267.493 170.248 268.197 171.464C268.922 172.68 269.285 174.216 269.285 176.072C269.285 177.907 268.922 179.432 268.197 180.648C267.493 181.864 266.543 182.781 265.349 183.4C264.154 183.997 262.831 184.296 261.381 184.296ZM261.733 181.608C262.863 181.608 263.866 181.373 264.741 180.904C265.615 180.435 266.298 179.784 266.789 178.952C267.301 178.12 267.557 177.16 267.557 176.072C267.557 174.984 267.301 174.024 266.789 173.192C266.298 172.36 265.615 171.72 264.741 171.272C263.866 170.803 262.863 170.568 261.733 170.568C260.602 170.568 259.589 170.803 258.693 171.272C257.818 171.72 257.125 172.36 256.613 173.192C256.122 174.024 255.877 174.984 255.877 176.072C255.877 177.16 256.122 178.12 256.613 178.952C257.125 179.784 257.818 180.435 258.693 180.904C259.589 181.373 260.602 181.608 261.733 181.608ZM278.355 185V168.04H281.427V185H278.355ZM279.891 164.776C279.293 164.776 278.792 164.584 278.387 164.2C278.003 163.816 277.811 163.347 277.811 162.792C277.811 162.216 278.003 161.736 278.387 161.352C278.792 160.968 279.293 160.776 279.891 160.776C280.488 160.776 280.979 160.968 281.363 161.352C281.768 161.715 281.971 162.173 281.971 162.728C281.971 163.304 281.779 163.795 281.395 164.2C281.011 164.584 280.509 164.776 279.891 164.776ZM298.268 167.88C299.655 167.88 300.871 168.147 301.916 168.68C302.983 169.213 303.815 170.024 304.412 171.112C305.009 172.2 305.308 173.576 305.308 175.24V185H302.236V175.592C302.236 173.949 301.831 172.712 301.02 171.88C300.231 171.048 299.111 170.632 297.66 170.632C296.572 170.632 295.623 170.845 294.812 171.272C294.001 171.699 293.372 172.328 292.924 173.16C292.497 173.992 292.284 175.027 292.284 176.264V185H289.212V168.04H292.156V172.616L291.676 171.4C292.231 170.291 293.084 169.427 294.236 168.808C295.388 168.189 296.732 167.88 298.268 167.88ZM317.777 185.192C316.369 185.192 315.025 185 313.745 184.616C312.487 184.232 311.495 183.763 310.769 183.208L312.049 180.776C312.775 181.267 313.671 181.683 314.737 182.024C315.804 182.365 316.892 182.536 318.001 182.536C319.431 182.536 320.455 182.333 321.073 181.928C321.713 181.523 322.033 180.957 322.033 180.232C322.033 179.699 321.841 179.283 321.457 178.984C321.073 178.685 320.561 178.461 319.921 178.312C319.303 178.163 318.609 178.035 317.841 177.928C317.073 177.8 316.305 177.651 315.537 177.48C314.769 177.288 314.065 177.032 313.425 176.712C312.785 176.371 312.273 175.912 311.889 175.336C311.505 174.739 311.313 173.949 311.313 172.968C311.313 171.944 311.601 171.048 312.177 170.28C312.753 169.512 313.564 168.925 314.609 168.52C315.676 168.093 316.935 167.88 318.385 167.88C319.495 167.88 320.615 168.019 321.745 168.296C322.897 168.552 323.836 168.925 324.561 169.416L323.249 171.848C322.481 171.336 321.681 170.984 320.849 170.792C320.017 170.6 319.185 170.504 318.353 170.504C317.009 170.504 316.007 170.728 315.345 171.176C314.684 171.603 314.353 172.157 314.353 172.84C314.353 173.416 314.545 173.864 314.929 174.184C315.335 174.483 315.847 174.717 316.465 174.888C317.105 175.059 317.809 175.208 318.577 175.336C319.345 175.443 320.113 175.592 320.881 175.784C321.649 175.955 322.343 176.2 322.961 176.52C323.601 176.84 324.113 177.288 324.497 177.864C324.903 178.44 325.105 179.208 325.105 180.168C325.105 181.192 324.807 182.077 324.209 182.824C323.612 183.571 322.769 184.157 321.681 184.584C320.593 184.989 319.292 185.192 317.777 185.192ZM344.962 185L338.658 168.04H341.57L347.17 183.4H345.794L351.618 168.04H354.21L359.906 183.4H358.562L364.29 168.04H367.042L360.706 185H357.762L352.418 170.984H353.314L347.906 185H344.962ZM372.08 185V168.04H375.152V185H372.08ZM373.616 164.776C373.018 164.776 372.517 164.584 372.112 164.2C371.728 163.816 371.536 163.347 371.536 162.792C371.536 162.216 371.728 161.736 372.112 161.352C372.517 160.968 373.018 160.776 373.616 160.776C374.213 160.776 374.704 160.968 375.088 161.352C375.493 161.715 375.696 162.173 375.696 162.728C375.696 163.304 375.504 163.795 375.12 164.2C374.736 164.584 374.234 164.776 373.616 164.776ZM388.761 185.192C387.054 185.192 385.732 184.733 384.793 183.816C383.854 182.899 383.385 181.587 383.385 179.88V164.328H386.457V179.752C386.457 180.669 386.681 181.373 387.129 181.864C387.598 182.355 388.26 182.6 389.113 182.6C390.073 182.6 390.873 182.333 391.513 181.8L392.473 184.008C392.004 184.413 391.438 184.712 390.777 184.904C390.137 185.096 389.465 185.192 388.761 185.192ZM380.505 170.568V168.04H391.321V170.568H380.505ZM407.163 167.88C408.55 167.88 409.766 168.147 410.811 168.68C411.878 169.213 412.71 170.024 413.307 171.112C413.904 172.2 414.203 173.576 414.203 175.24V185H411.131V175.592C411.131 173.949 410.726 172.712 409.915 171.88C409.126 171.048 408.006 170.632 406.555 170.632C405.467 170.632 404.518 170.845 403.707 171.272C402.896 171.699 402.267 172.328 401.819 173.16C401.392 173.992 401.179 175.027 401.179 176.264V185H398.107V161.256H401.179V172.616L400.571 171.4C401.126 170.291 401.979 169.427 403.131 168.808C404.283 168.189 405.627 167.88 407.163 167.88ZM435.682 172.264H447.202V174.984H435.682V172.264ZM435.97 182.216H449.026V185H432.77V162.6H448.578V165.384H435.97V182.216ZM459.846 185L452.422 168.04H455.622L462.214 183.4H460.678L467.398 168.04H470.406L462.982 185H459.846ZM482.277 185.192C480.463 185.192 478.863 184.819 477.477 184.072C476.111 183.325 475.045 182.301 474.277 181C473.53 179.699 473.157 178.205 473.157 176.52C473.157 174.835 473.519 173.341 474.245 172.04C474.991 170.739 476.005 169.725 477.285 169C478.586 168.253 480.047 167.88 481.669 167.88C483.311 167.88 484.762 168.243 486.021 168.968C487.279 169.693 488.261 170.717 488.965 172.04C489.69 173.341 490.053 174.867 490.053 176.616C490.053 176.744 490.042 176.893 490.021 177.064C490.021 177.235 490.01 177.395 489.989 177.544H475.557V175.336H488.389L487.141 176.104C487.162 175.016 486.938 174.045 486.469 173.192C485.999 172.339 485.349 171.677 484.517 171.208C483.706 170.717 482.757 170.472 481.669 170.472C480.602 170.472 479.653 170.717 478.821 171.208C477.989 171.677 477.338 172.349 476.869 173.224C476.399 174.077 476.165 175.059 476.165 176.168V176.68C476.165 177.811 476.421 178.824 476.933 179.72C477.466 180.595 478.202 181.277 479.141 181.768C480.079 182.259 481.157 182.504 482.373 182.504C483.375 182.504 484.282 182.333 485.093 181.992C485.925 181.651 486.65 181.139 487.269 180.456L488.965 182.44C488.197 183.336 487.237 184.019 486.085 184.488C484.954 184.957 483.685 185.192 482.277 185.192ZM496.238 185V168.04H499.182V172.648L498.894 171.496C499.364 170.323 500.153 169.427 501.262 168.808C502.372 168.189 503.737 167.88 505.358 167.88V170.856C505.23 170.835 505.102 170.824 504.974 170.824C504.868 170.824 504.761 170.824 504.654 170.824C503.012 170.824 501.71 171.315 500.75 172.296C499.79 173.277 499.31 174.696 499.31 176.552V185H496.238ZM512.488 191.4C511.677 191.4 510.888 191.261 510.12 190.984C509.352 190.728 508.691 190.344 508.136 189.832L509.448 187.528C509.875 187.933 510.344 188.243 510.856 188.456C511.368 188.669 511.912 188.776 512.488 188.776C513.235 188.776 513.853 188.584 514.344 188.2C514.835 187.816 515.293 187.133 515.72 186.152L516.776 183.816L517.096 183.432L523.752 168.04H526.76L518.536 186.696C518.045 187.891 517.491 188.829 516.872 189.512C516.275 190.195 515.613 190.675 514.888 190.952C514.163 191.251 513.363 191.4 512.488 191.4ZM516.52 185.544L508.776 168.04H511.976L518.568 183.144L516.52 185.544ZM636.227 185.192C635.629 185.192 635.117 184.989 634.691 184.584C634.264 184.157 634.051 183.624 634.051 182.984C634.051 182.344 634.264 181.821 634.691 181.416C635.117 181.011 635.629 180.808 636.227 180.808C636.803 180.808 637.293 181.011 637.699 181.416C638.125 181.821 638.339 182.344 638.339 182.984C638.339 183.624 638.125 184.157 637.699 184.584C637.293 184.989 636.803 185.192 636.227 185.192Z" fill="black"/>
<path d="M538.861 185L548.845 162.6H553.965L563.981 185H558.541L550.349 165.224H552.397L544.173 185H538.861ZM543.853 180.2L545.229 176.264H556.749L558.157 180.2H543.853ZM578.337 167.528C579.702 167.528 580.918 167.805 581.985 168.36C583.073 168.893 583.926 169.725 584.545 170.856C585.163 171.965 585.473 173.395 585.473 175.144V185H580.481V175.912C580.481 174.525 580.171 173.501 579.553 172.84C578.955 172.179 578.102 171.848 576.993 171.848C576.203 171.848 575.489 172.019 574.849 172.36C574.23 172.68 573.739 173.181 573.377 173.864C573.035 174.547 572.865 175.421 572.865 176.488V185H567.873V167.784H572.641V172.552L571.745 171.112C572.363 169.96 573.249 169.075 574.401 168.456C575.553 167.837 576.865 167.528 578.337 167.528ZM597.71 185.256C596.238 185.256 594.819 185.085 593.454 184.744C592.11 184.381 591.043 183.933 590.254 183.4L591.918 179.816C592.707 180.307 593.635 180.712 594.702 181.032C595.79 181.331 596.856 181.48 597.902 181.48C599.054 181.48 599.864 181.341 600.334 181.064C600.824 180.787 601.07 180.403 601.07 179.912C601.07 179.507 600.878 179.208 600.494 179.016C600.131 178.803 599.64 178.643 599.022 178.536C598.403 178.429 597.72 178.323 596.974 178.216C596.248 178.109 595.512 177.971 594.766 177.8C594.019 177.608 593.336 177.331 592.718 176.968C592.099 176.605 591.598 176.115 591.214 175.496C590.851 174.877 590.67 174.077 590.67 173.096C590.67 172.008 590.979 171.048 591.598 170.216C592.238 169.384 593.155 168.733 594.35 168.264C595.544 167.773 596.974 167.528 598.638 167.528C599.811 167.528 601.006 167.656 602.222 167.912C603.438 168.168 604.451 168.541 605.262 169.032L603.598 172.584C602.766 172.093 601.923 171.763 601.07 171.592C600.238 171.4 599.427 171.304 598.638 171.304C597.528 171.304 596.718 171.453 596.206 171.752C595.694 172.051 595.438 172.435 595.438 172.904C595.438 173.331 595.619 173.651 595.982 173.864C596.366 174.077 596.867 174.248 597.486 174.376C598.104 174.504 598.776 174.621 599.502 174.728C600.248 174.813 600.995 174.952 601.742 175.144C602.488 175.336 603.16 175.613 603.758 175.976C604.376 176.317 604.878 176.797 605.262 177.416C605.646 178.013 605.838 178.803 605.838 179.784C605.838 180.851 605.518 181.8 604.878 182.632C604.238 183.443 603.31 184.083 602.094 184.552C600.899 185.021 599.438 185.256 597.71 185.256ZM621.302 167.528C622.667 167.528 623.883 167.805 624.95 168.36C626.038 168.893 626.891 169.725 627.51 170.856C628.128 171.965 628.438 173.395 628.438 175.144V185H623.446V175.912C623.446 174.525 623.136 173.501 622.518 172.84C621.92 172.179 621.067 171.848 619.958 171.848C619.168 171.848 618.454 172.019 617.814 172.36C617.195 172.68 616.704 173.181 616.342 173.864C616 174.547 615.83 175.421 615.83 176.488V185H610.838V161.256H615.83V172.552L614.71 171.112C615.328 169.96 616.214 169.075 617.366 168.456C618.518 167.837 619.83 167.528 621.302 167.528Z" fill="url(#paint12_linear_228_77)"/>
<defs>
<linearGradient id="paint0_linear_228_77" x1="9.4705" y1="76.1219" x2="11.9249" y2="116.188" gradientUnits="userSpaceOnUse">
<stop stop-color="#EE4E94"/>
<stop offset="1" stop-color="#924CE8"/>
</linearGradient>
<linearGradient id="paint1_linear_228_77" x1="3.03183" y1="7.021" x2="21.6121" y2="115.904" gradientUnits="userSpaceOnUse">
<stop stop-color="#EE4E94"/>
<stop offset="1" stop-color="#924CE8"/>
</linearGradient>
<linearGradient id="paint2_linear_228_77" x1="3.03206" y1="7.02031" x2="21.6075" y2="115.894" gradientUnits="userSpaceOnUse">
<stop stop-color="#EE4E94"/>
<stop offset="1" stop-color="#924CE8"/>
</linearGradient>
<linearGradient id="paint3_linear_228_77" x1="3.03669" y1="7.12599" x2="22.1317" y2="117.554" gradientUnits="userSpaceOnUse">
<stop stop-color="#EE4E94"/>
<stop offset="1" stop-color="#924CE8"/>
</linearGradient>
<linearGradient id="paint4_linear_228_77" x1="117.849" y1="74.9897" x2="26.6948" y2="135.474" gradientUnits="userSpaceOnUse">
<stop stop-color="#EE4E94"/>
<stop offset="1" stop-color="#924CE8"/>
</linearGradient>
<linearGradient id="paint5_linear_228_77" x1="587.351" y1="10.5183" x2="599.969" y2="62.4113" gradientUnits="userSpaceOnUse">
<stop stop-color="#EE4E94"/>
<stop offset="1" stop-color="#924CE8"/>
</linearGradient>
<linearGradient id="paint6_linear_228_77" x1="521.72" y1="9.71301" x2="536.218" y2="61.9032" gradientUnits="userSpaceOnUse">
<stop stop-color="#EE4E94"/>
<stop offset="1" stop-color="#924CE8"/>
</linearGradient>
<linearGradient id="paint7_linear_228_77" x1="379.689" y1="10.713" x2="390.562" y2="64.7422" gradientUnits="userSpaceOnUse">
<stop stop-color="#EE4E94"/>
<stop offset="1" stop-color="#924CE8"/>
</linearGradient>
<linearGradient id="paint8_linear_228_77" x1="235.282" y1="10.7465" x2="248.503" y2="63.8908" gradientUnits="userSpaceOnUse">
<stop stop-color="#EE4E94"/>
<stop offset="1" stop-color="#924CE8"/>
</linearGradient>
<linearGradient id="paint9_linear_228_77" x1="304.282" y1="10.7465" x2="317.503" y2="63.8908" gradientUnits="userSpaceOnUse">
<stop stop-color="#EE4E94"/>
<stop offset="1" stop-color="#924CE8"/>
</linearGradient>
<linearGradient id="paint10_linear_228_77" x1="455.706" y1="8.74648" x2="468.927" y2="61.8908" gradientUnits="userSpaceOnUse">
<stop stop-color="#EE4E94"/>
<stop offset="1" stop-color="#924CE8"/>
</linearGradient>
<linearGradient id="paint11_linear_228_77" x1="191.582" y1="11.3181" x2="217.182" y2="28.8068" gradientUnits="userSpaceOnUse">
<stop stop-color="#EE4E94"/>
<stop offset="1" stop-color="#924CE8"/>
</linearGradient>
<linearGradient id="paint12_linear_228_77" x1="327.914" y1="154" x2="327.836" y2="185.2" gradientUnits="userSpaceOnUse">
<stop stop-color="#EE4E94"/>
<stop offset="1" stop-color="#924CE8"/>
</linearGradient>
</defs>
</svg>
